<?xml version="1.0" standalone="no"?>
<!DOCTYPE svg PUBLIC "-//W3C//DTD SVG 20010904//EN"
 "http://www.w3.org/TR/2001/REC-SVG-20010904/DTD/svg10.dtd">
<svg version="1.0" xmlns="http://www.w3.org/2000/svg"
 width="656.000000pt" height="768.000000pt" viewBox="0 0 656.000000 768.000000"
 preserveAspectRatio="xMidYMid meet">

<g transform="translate(0.000000,768.000000) scale(0.100000,-0.100000)"
fill="#000000" stroke="none">
<path d="M790 6761 l0 -40 128 -3 127 -3 3 -36 c3 -33 5 -36 30 -33 l27 4 -28
-9 c-16 -6 -63 -9 -105 -9 l-77 1 0 -34 c0 -27 5 -34 25 -40 14 -4 -4 -5 -38
-2 -72 7 -79 2 -77 -53 l1 -35 -46 3 -45 3 2 123 2 122 -39 0 c-40 0 -40 0
-40 -40 l0 -40 -40 0 -40 0 0 -45 0 -45 40 0 40 0 0 -47 c0 -78 7 -92 49 -95
36 -3 36 -3 39 -53 2 -27 1 -64 -3 -82 -5 -29 -8 -31 -43 -29 -35 2 -37 4 -42
41 -5 38 -7 40 -45 45 -37 5 -40 8 -45 40 -4 31 -9 35 -37 38 -36 4 -34 -6
-37 172 l-1 55 -35 -1 -35 0 3 -65 c2 -35 0 -83 -3 -105 -5 -39 -8 -42 -48
-50 -42 -9 -42 -10 -40 -51 l2 -41 -47 -4 c-26 -1 -59 -2 -74 0 -25 3 -28 7
-28 43 l0 39 -45 0 -45 0 0 80 0 80 36 0 c35 0 35 1 32 38 -3 32 -7 37 -31 40
-17 2 -27 -1 -27 -9 0 -10 -3 -10 -12 -1 -7 7 -27 12 -45 12 l-33 0 0 -125 0
-125 40 0 40 0 0 -75 0 -75 -40 0 -40 0 0 -40 0 -40 84 0 c47 0 88 -4 91 -10
3 -5 16 -10 28 -11 21 -1 21 -1 2 -7 -11 -4 -21 -15 -23 -26 -3 -13 1 -17 11
-13 8 3 20 0 26 -6 8 -8 11 0 11 31 l0 42 88 0 c48 0 104 -4 125 -9 21 -5 37
-5 37 0 0 5 38 9 85 9 l85 0 0 -39 c0 -26 5 -41 16 -45 29 -11 34 -6 34 38 l0
43 238 2 c131 1 260 -3 287 -8 31 -6 51 -6 53 0 5 11 144 11 195 0 21 -5 39
-5 43 0 3 5 43 9 90 9 l84 0 0 -45 c0 -44 1 -45 33 -45 32 0 32 0 29 45 l-4
45 89 0 c83 0 91 -2 101 -22 9 -20 11 -20 11 -4 1 12 6 16 16 13 8 -4 17 -2
20 3 9 15 91 12 130 -4 31 -13 35 -13 35 0 0 14 32 18 130 14 52 -2 60 -10 51
-53 l-7 -32 -90 0 -89 0 -3 -37 -3 -38 53 0 53 0 0 -77 0 -78 123 -3 c76 -2
121 1 118 7 -3 5 0 12 6 15 10 5 10 7 1 12 -7 3 -9 12 -6 20 4 11 -8 14 -63
16 -38 0 -77 0 -87 0 -15 -2 -18 5 -15 41 l3 42 55 5 c36 3 49 8 38 12 -15 6
-18 20 -18 78 l0 70 125 0 c69 0 125 -4 125 -9 0 -6 14 -5 35 0 20 6 57 9 83
7 47 -3 47 -3 50 -40 2 -24 8 -38 17 -38 8 0 16 -16 20 -38 6 -38 7 -38 56
-41 46 -2 49 -1 49 24 0 17 -6 25 -17 26 -15 0 -15 2 2 9 16 6 10 9 -25 11
l-45 4 -3 43 -3 42 38 1 c21 1 77 1 126 0 l87 -2 0 41 0 40 40 0 40 0 0 40 0
40 -40 0 -40 0 0 45 c0 43 1 45 28 45 26 0 28 3 24 29 -3 21 -10 31 -26 33
-17 2 -22 11 -24 46 -3 42 -3 42 -43 42 l-39 0 0 -85 0 -85 -40 0 -40 0 0 45
0 45 -40 0 -40 0 0 40 0 40 -155 0 -155 0 0 -41 c0 -39 1 -40 33 -39 17 1 69
2 115 1 l82 -1 -1 -32 c0 -32 -17 -85 -18 -60 -1 10 -4 10 -15 0 -8 -7 -10
-15 -6 -18 4 -3 10 -14 13 -25 4 -18 5 -17 6 3 0 13 5 20 11 17 6 -4 8 -11 5
-16 -4 -5 -3 -15 2 -21 5 -8 10 4 13 32 4 40 8 45 33 48 l27 3 0 -85 0 -86
-34 0 c-33 0 -35 2 -38 38 -3 34 -6 37 -35 40 -31 3 -33 6 -33 43 l0 39 -125
0 c-93 0 -125 3 -126 13 0 6 0 47 1 89 1 43 -2 109 -6 148 l-7 70 -33 0 c-32
0 -33 -2 -36 -42 -3 -42 -4 -43 -41 -46 -36 -3 -38 -5 -35 -35 3 -28 7 -32 36
-35 30 -3 32 -5 32 -43 l0 -40 -37 3 c-35 3 -38 5 -38 35 l0 31 -78 7 -77 7 0
32 c0 17 -1 51 -2 76 -3 44 -4 45 -41 48 -36 3 -37 4 -37 43 l0 40 -117 -3
-118 -3 -3 -37 c-2 -25 -8 -38 -18 -38 -8 0 -14 -10 -14 -25 0 -14 -4 -25 -9
-25 -5 0 -11 -7 -15 -15 -4 -11 2 -15 24 -15 28 0 30 2 30 40 l0 40 115 0 115
0 0 -45 0 -45 -75 0 -75 0 0 -30 c0 -28 -3 -30 -35 -30 -35 0 -35 0 -35 -43 0
-42 1 -44 30 -44 28 0 30 3 30 40 l0 40 116 -6 c64 -3 118 -7 120 -9 2 -2 7
-37 10 -76 l7 -72 38 0 39 0 0 -79 c0 -44 -3 -82 -7 -84 -5 -2 -25 -2 -45 0
-36 5 -38 7 -38 43 0 38 -1 39 -37 42 -36 3 -38 5 -41 41 -3 36 -4 37 -43 37
-38 0 -39 1 -39 34 0 24 -5 35 -17 38 -33 8 -53 -3 -53 -27 0 -32 -6 -34 -95
-42 l-77 -6 4 -39 4 -38 -43 0 -43 0 0 -40 c0 -33 -3 -40 -19 -40 -11 0 -22 8
-24 18 -4 16 -5 16 -6 0 0 -10 -5 -18 -11 -18 -6 0 -10 35 -10 84 0 89 -6 100
-47 85 -21 -8 -23 -15 -23 -91 -1 -62 -3 -78 -11 -65 -6 9 -7 26 -4 37 5 16 2
20 -17 20 -56 0 -69 10 -66 49 3 35 2 36 -35 39 -37 3 -38 4 -35 40 3 33 6 37
33 40 40 5 51 16 50 49 0 31 14 28 -167 33 l-78 3 0 78 0 79 -74 0 -75 0 -3
38 -3 37 -127 3 -128 3 0 -40z m250 -211 c0 -12 -24 -12 -60 0 -21 7 -19 8 18
9 23 1 42 -3 42 -9z m-19 -70 c16 0 19 -7 19 -40 l0 -40 -40 0 -40 0 0 -40 0
-40 -40 0 -40 0 0 79 0 80 48 4 c26 2 53 2 60 0 8 -2 22 -3 33 -3z m1422 -79
c25 -1 27 -4 27 -41 l0 -40 -40 0 -40 0 0 -40 c0 -38 -2 -40 -30 -40 -17 0
-30 5 -30 13 -1 6 -3 45 -7 85 l-5 74 48 -6 c27 -2 61 -5 77 -5z m-1580 -80
c4 -1 7 -18 7 -39 0 -37 -1 -38 -30 -34 -26 4 -30 8 -30 36 0 38 5 45 28 41 9
-2 20 -4 25 -4z m-446 -23 c-3 -8 -6 -5 -6 6 -1 11 2 17 5 13 3 -3 4 -12 1
-19z"/>
<path d="M1344 6793 c-49 -4 -52 -6 -56 -34 -3 -16 -2 -31 0 -34 3 -3 56 -5
118 -5 l113 0 3 -37 c3 -36 5 -38 37 -38 33 0 35 2 35 35 0 20 -6 36 -12 36
-7 1 -23 2 -36 3 -21 1 -25 7 -28 39 l-3 37 -60 1 c-33 0 -83 -1 -111 -3z"/>
<path d="M400 6755 c0 -35 0 -35 45 -35 l45 0 0 -41 c0 -38 2 -40 26 -37 25 3
26 6 31 76 l4 72 -75 0 -76 0 0 -35z"/>
<path d="M248 6713 c0 -4 -2 -12 -3 -18 -2 -5 -3 -54 -4 -107 l-1 -97 -37 -3
c-35 -3 -36 -4 -37 -43 -1 -39 0 -40 37 -43 l37 -3 0 40 c0 40 1 41 35 41 34
0 35 1 35 39 0 22 5 41 12 43 8 3 9 24 2 79 l-9 74 -32 3 c-18 2 -34 0 -35 -5z"/>
<path d="M1685 6640 l7 -80 -46 0 -47 0 3 -76 3 -76 38 -4 37 -3 0 39 c0 41 4
44 48 40 21 -1 22 3 23 62 1 35 1 68 0 75 -1 6 3 14 9 18 5 3 10 24 10 46 l0
39 -46 0 -46 0 7 -80z"/>
<path d="M2598 6712 c-34 -3 -38 -6 -38 -31 0 -24 5 -30 31 -35 17 -3 54 -6
81 -6 l49 0 -3 38 c-3 36 -4 37 -43 37 -22 0 -57 -1 -77 -3z"/>
<path d="M2732 6608 c3 -29 6 -33 33 -33 29 0 32 5 26 55 0 6 -15 10 -32 10
-28 0 -30 -2 -27 -32z"/>
<path d="M3440 6438 c0 -38 0 -38 -40 -38 -39 0 -40 1 -40 35 0 34 -1 35 -40
35 -39 0 -40 -1 -40 -35 0 -33 2 -35 35 -35 30 0 35 -3 35 -24 0 -14 7 -32 16
-40 14 -15 11 -16 -36 -16 l-51 0 3 -37 3 -38 83 -3 82 -3 0 81 0 80 25 -6
c14 -3 32 -1 40 6 8 6 29 10 47 8 31 -3 33 -1 30 27 -2 16 -5 31 -7 33 -1 2
-35 4 -74 5 l-71 2 0 -37z"/>
<path d="M3760 6438 l0 -38 -45 0 -45 0 0 -40 c0 -38 -1 -40 -32 -41 -18 -1
-52 -1 -75 1 -42 2 -43 1 -43 -29 0 -19 8 -38 20 -48 14 -12 20 -30 20 -56 0
-39 1 -39 31 -33 17 3 42 6 55 6 19 0 23 6 26 38 3 36 4 37 46 40 l42 3 1 42
c1 23 0 56 -1 73 -1 18 4 35 10 39 6 4 52 9 103 11 92 4 104 8 89 32 -10 14
-35 20 -134 31 l-68 7 0 -38z"/>
<path d="M4292 6472 c-48 -3 -53 -5 -52 -25 4 -43 1 -47 -40 -47 l-40 0 0 -40
0 -40 -40 0 -40 0 0 -80 0 -80 -40 0 c-35 0 -40 -3 -40 -24 0 -14 10 -30 23
-39 20 -13 24 -13 37 1 8 9 17 25 20 36 4 15 15 22 37 24 29 3 32 7 35 40 3
37 4 37 51 40 l47 3 0 39 c0 35 3 39 28 42 24 3 27 7 27 38 0 35 0 35 47 38
47 3 48 3 44 35 -3 18 -5 35 -5 38 -1 4 -11 6 -23 5 -13 0 -47 -2 -76 -4z"/>
<path d="M4637 6473 c-4 -3 -7 -22 -7 -40 0 -24 -4 -33 -12 -30 -8 2 -12 16
-10 32 3 23 1 25 -10 14 -8 -8 -17 -22 -21 -31 -5 -14 -18 -18 -52 -18 l-45 0
0 -85 c0 -77 2 -85 19 -85 37 0 51 -12 51 -41 0 -28 2 -29 45 -29 l45 0 0 40
0 40 83 0 83 0 -4 40 -4 40 -79 0 -79 0 0 43 0 42 42 0 c42 0 43 1 46 38 l3
37 -44 0 c-24 0 -47 -3 -50 -7z"/>
<path d="M5120 6441 c0 -40 -1 -41 -32 -41 l-33 1 30 14 c17 7 23 14 15 14 -8
1 -25 4 -37 7 -19 5 -23 2 -23 -15 0 -18 -6 -21 -40 -21 l-40 0 0 -40 c0 -39
-1 -40 -35 -40 -39 0 -38 1 -35 -106 l1 -52 -43 -6 c-24 -3 -51 -6 -60 -7 -11
0 -18 -8 -18 -20 0 -24 -17 -25 -23 -1 -3 11 -5 8 -6 -8 -1 -22 3 -26 27 -25
15 0 48 -2 75 -6 l47 -5 0 38 c0 37 1 38 35 38 33 0 35 2 35 34 0 33 1 33 53
40 28 3 82 6 120 6 37 0 67 4 67 9 0 5 -17 8 -37 7 l-38 -1 -3 68 -3 67 39 0
c49 0 64 16 53 56 -6 25 -12 29 -49 32 l-42 3 0 -40z"/>
<path d="M5440 6440 l0 -40 -45 0 -45 0 0 -40 0 -40 -71 0 -70 0 3 -42 3 -43
73 4 72 3 0 -46 c0 -42 2 -46 24 -46 29 0 38 12 43 55 2 16 7 31 11 32 4 2 6
39 4 83 l-4 80 46 0 c44 0 67 12 46 25 -5 3 -10 11 -10 17 0 7 5 6 15 -2 15
-13 39 -5 30 11 -4 5 -15 9 -26 9 -10 0 -19 5 -19 10 0 6 -18 10 -40 10 l-40
0 0 -40z"/>
<path d="M5864 6455 c-7 -29 -21 -33 -27 -7 -3 9 -5 2 -6 -15 -1 -30 -4 -33
-33 -33 -28 0 -80 19 -54 20 5 0 4 6 -2 13 -6 6 -11 15 -11 20 -1 4 -3 7 -6 7
-3 0 -18 0 -33 0 -25 0 -28 -4 -28 -30 0 -29 1 -30 48 -30 l48 0 0 -40 0 -40
-40 0 c-39 0 -40 -1 -40 -36 0 -29 -3 -35 -16 -30 -9 3 -22 6 -30 6 -9 0 -14
11 -14 30 0 29 -1 30 -50 30 l-50 0 0 -40 0 -40 44 0 c38 0 45 -3 50 -24 3
-14 3 -32 0 -40 -5 -12 1 -16 24 -16 28 0 31 3 34 38 3 41 -7 37 121 41 l47 1
0 79 0 79 76 7 c74 7 75 8 72 34 -3 23 -7 26 -39 23 -21 -2 -40 1 -44 7 -11
20 -34 12 -41 -14z m-147 -41 c-3 -3 -12 -4 -19 -1 -8 3 -5 6 6 6 11 1 17 -2
13 -5z"/>
<path d="M6128 6472 c-36 -3 -38 -5 -38 -38 0 -34 0 -34 -45 -34 l-45 0 0 -45
0 -45 -35 5 c-27 3 -37 0 -45 -15 -13 -25 -13 -57 1 -65 15 -10 79 -12 79 -3
0 5 19 8 43 8 l43 0 -1 78 0 77 71 3 c69 3 72 4 77 30 5 29 -9 45 -32 37 -7
-3 -19 -2 -25 2 -6 5 -28 7 -48 5z"/>
<path d="M4930 6433 c0 -43 5 -41 13 5 4 18 2 32 -3 32 -6 0 -10 -16 -10 -37z"/>
<path d="M6480 6440 c0 -28 2 -30 41 -30 35 0 40 2 34 18 -4 9 -8 23 -8 30 0
7 -14 12 -34 12 -30 0 -33 -3 -33 -30z"/>
<path d="M4881 6444 c0 -11 3 -14 6 -6 3 7 2 16 -1 19 -3 4 -6 -2 -5 -13z"/>
<path d="M4901 6438 c-1 -16 4 -28 9 -28 12 0 12 8 0 35 -8 18 -9 17 -9 -7z"/>
<path d="M328 6433 c7 -3 16 -2 19 1 4 3 -2 6 -13 5 -11 0 -14 -3 -6 -6z"/>
<path d="M4020 6430 c0 -5 5 -10 10 -10 6 0 10 5 10 10 0 6 -4 10 -10 10 -5 0
-10 -4 -10 -10z"/>
<path d="M5248 6433 c-27 -7 -22 -28 7 -31 19 -1 25 3 25 18 0 20 -2 21 -32
13z"/>
<path d="M6320 6360 l0 -40 -75 0 -75 0 0 -39 c0 -37 2 -40 32 -43 25 -2 34
-9 39 -28 6 -21 7 -22 9 -5 1 14 5 10 14 -15 11 -29 14 -32 18 -15 5 16 6 17
7 3 2 -27 21 -21 21 6 0 45 10 56 51 56 l39 0 0 80 0 80 -40 0 -40 0 0 -40z"/>
<path d="M3840 6280 l0 -40 80 0 80 0 0 40 0 40 -80 0 -80 0 0 -40z"/>
<path d="M4310 6278 l0 -38 45 0 c45 0 45 0 45 34 0 33 -1 34 -45 38 l-45 3 0
-37z"/>
<path d="M6489 6278 c6 -28 12 -33 39 -36 31 -3 32 -2 32 32 0 35 -1 36 -39
36 -38 0 -38 0 -32 -32z"/>
<path d="M5960 6176 c0 -2 9 -6 20 -9 11 -3 20 -1 20 4 0 5 -9 9 -20 9 -11 0
-20 -2 -20 -4z"/>
<path d="M5458 6143 c12 -2 32 -2 45 0 12 2 2 4 -23 4 -25 0 -35 -2 -22 -4z"/>
<path d="M5770 6120 l0 -31 77 3 c75 3 77 4 77 28 0 24 -2 25 -77 28 l-77 3 0
-31z"/>
<path d="M6100 6114 l0 -34 -50 0 -50 0 0 -40 0 -39 108 0 c60 0 114 4 121 8
7 5 11 19 9 32 -2 18 -10 25 -33 27 -50 6 -53 22 -4 24 l44 1 -45 7 c-25 4
-37 8 -28 8 11 1 15 8 12 16 -4 11 4 16 28 19 18 2 0 4 -39 4 l-73 0 0 -33z"/>
<path d="M857 6110 c-3 -11 -1 -23 4 -26 5 -3 9 6 9 20 0 31 -6 34 -13 6z"/>
<path d="M2121 6104 c0 -11 3 -14 6 -6 3 7 2 16 -1 19 -3 4 -6 -2 -5 -13z"/>
<path d="M3458 6113 c12 -2 32 -2 45 0 12 2 2 4 -23 4 -25 0 -35 -2 -22 -4z"/>
<path d="M5458 6113 c12 -2 32 -2 45 0 12 2 2 4 -23 4 -25 0 -35 -2 -22 -4z"/>
<path d="M469 6092 c-6 -17 -69 -45 -69 -32 0 6 -14 10 -31 10 -23 0 -30 -4
-26 -15 4 -8 2 -17 -4 -20 -5 -4 -7 -10 -4 -15 6 -11 -19 -20 -56 -20 -27 0
-29 -3 -29 -39 0 -37 2 -39 35 -43 l35 -4 0 43 0 43 61 0 c50 0 60 3 56 15 -4
8 -2 17 3 20 6 4 10 -3 10 -14 0 -19 6 -21 55 -21 l55 0 0 35 c0 34 -1 35 -39
35 -30 0 -40 4 -43 18 -3 12 -5 13 -9 4z"/>
<path d="M820 6090 c0 -5 5 -10 10 -10 6 0 10 5 10 10 0 6 -4 10 -10 10 -5 0
-10 -4 -10 -10z"/>
<path d="M1968 6089 c-2 -6 -34 -13 -71 -16 -36 -3 -64 -10 -61 -14 3 -5 -2
-12 -10 -15 -9 -3 -13 -10 -10 -15 3 -5 -5 -10 -18 -10 -39 -2 30 -16 85 -18
l49 -1 -4 -37 c-3 -37 -2 -38 32 -43 31 -4 36 -9 40 -40 5 -32 8 -35 42 -38
35 -3 37 -5 40 -40 l3 -37 78 -3 77 -3 0 41 c0 36 -2 40 -25 40 -14 0 -25 5
-25 10 0 6 -7 10 -15 10 -8 0 -15 -4 -15 -10 0 -5 -16 -10 -35 -10 -36 0 -37
2 -39 60 -1 21 -7 26 -33 28 -29 3 -33 7 -33 33 0 24 4 29 24 29 14 0 28 5 31
10 4 6 -6 9 -27 8 -31 -3 -33 -1 -32 30 0 20 -5 32 -13 32 -7 0 -13 7 -13 15
0 17 -17 20 -22 4z m12 -44 c0 -8 -9 -15 -20 -15 -11 0 -20 7 -20 15 0 8 9 15
20 15 11 0 20 -7 20 -15z"/>
<path d="M3578 6093 c7 -3 16 -2 19 1 4 3 -2 6 -13 5 -11 0 -14 -3 -6 -6z"/>
<path d="M5478 6093 c23 -2 61 -2 85 0 23 2 4 4 -43 4 -47 0 -66 -2 -42 -4z"/>
<path d="M2739 6076 c-1 -1 -3 -11 -4 -23 -5 -51 -12 -56 -75 -51 -32 2 -57 1
-54 -4 3 -4 12 -8 20 -8 16 0 21 -69 4 -71 -5 -1 -15 -2 -21 -3 -13 -1 -36
-33 -29 -39 3 -2 17 -7 33 -11 25 -6 27 -4 27 25 0 28 2 31 24 25 41 -10 56 2
56 45 0 38 1 39 34 39 19 0 37 6 39 13 4 10 6 10 6 0 1 -15 31 -18 31 -3 0 5
-9 14 -20 20 -10 6 -17 16 -14 24 4 9 -5 15 -25 18 -17 3 -32 4 -32 4z"/>
<path d="M3127 6074 c-4 -4 -7 -22 -7 -41 0 -33 -1 -33 -47 -35 -27 -1 -60 -1
-75 0 -26 1 -28 -2 -28 -40 0 -38 1 -40 28 -36 26 4 27 1 30 -39 l3 -43 -76 0
-75 0 0 35 c0 34 -1 35 -41 35 l-40 0 2 -78 2 -78 28 4 c24 4 29 1 29 -17 0
-11 5 -21 10 -21 6 0 10 5 10 10 0 6 18 10 40 10 22 0 40 5 40 10 0 6 18 10
40 10 l39 0 3 78 3 77 42 3 c42 3 42 3 38 38 -5 34 -5 34 36 34 l40 0 -3 43
c-3 39 -5 42 -33 45 -17 2 -34 0 -38 -4z"/>
<path d="M3375 6071 c-19 -8 -19 -9 4 -12 30 -5 40 -45 13 -52 -9 -3 15 -5 54
-6 46 -1 75 -6 83 -14 6 -8 8 -16 5 -20 -3 -3 -3 -14 0 -24 6 -18 23 -21 191
-27 39 -1 40 0 43 37 3 35 5 37 38 37 35 0 35 0 32 42 -3 38 -6 43 -29 45 -34
2 -59 -14 -40 -26 9 -6 10 -11 2 -15 -6 -4 -11 -2 -11 3 0 6 -18 11 -40 11
-36 0 -40 -2 -40 -25 0 -24 -2 -25 -74 -25 -94 0 -109 5 -93 31 8 13 23 19 50
19 27 0 37 4 35 13 -5 14 -191 21 -223 8z"/>
<path d="M4385 6071 c-3 -5 -17 -8 -30 -5 -23 4 -25 1 -25 -31 l0 -34 155 0
155 0 0 39 0 40 -45 0 c-33 0 -47 -5 -54 -19 -6 -10 -22 -21 -36 -23 -21 -4
-25 -1 -25 18 0 22 -4 24 -44 24 -25 0 -47 -4 -51 -9z"/>
<path d="M5127 6073 c-4 -3 -7 -21 -7 -40 0 -32 1 -33 43 -33 23 -1 59 -3 80
-6 l37 -6 0 46 0 46 -73 0 c-41 0 -77 -3 -80 -7z"/>
<path d="M5403 6073 c-40 -4 -43 -6 -43 -33 l0 -28 95 -7 c52 -4 124 -5 160
-3 l65 4 0 -50 0 -49 -200 6 c-214 6 -204 7 -203 -40 1 -14 1 -14 -70 -17 -27
-1 -51 2 -53 6 -3 4 8 8 25 8 16 0 32 4 35 9 4 5 -11 7 -34 4 -26 -4 -40 -2
-40 6 0 6 14 11 32 11 17 0 29 3 25 6 -5 6 -103 12 -199 13 l-48 1 0 40 0 41
-72 -3 -73 -3 0 -35 c0 -33 2 -35 37 -38 31 -3 37 -7 41 -30 l4 -27 2 28 c1
21 6 27 24 27 47 0 19 -64 -34 -75 -26 -6 -29 -11 -29 -46 0 -33 3 -39 21 -39
20 0 21 4 15 40 -4 25 -2 40 4 40 5 0 10 -18 10 -40 0 -22 5 -40 10 -40 6 0
10 23 10 51 0 35 3 48 11 43 7 -4 48 -9 93 -12 45 -2 82 -5 83 -6 2 -1 4 -19
5 -39 l3 -37 83 0 82 0 0 40 0 41 83 -3 82 -3 3 -37 c3 -38 16 -50 25 -25 4 8
6 6 6 -4 2 -35 43 -55 105 -50 20 1 20 1 0 16 -18 14 -18 16 -1 26 11 6 17 22
17 44 l0 35 75 0 75 0 0 -34 c0 -48 -9 -66 -33 -66 -25 0 -12 -16 18 -23 11
-3 4 -5 -17 -6 -21 0 -38 -6 -38 -12 0 -7 25 -8 78 -4 80 7 109 15 54 15 -23
0 -30 4 -26 14 3 8 -2 16 -13 19 -16 4 -16 5 0 6 21 1 22 19 2 45 -26 35 -19
46 30 46 l45 0 0 40 0 40 -45 0 c-45 0 -45 0 -45 35 0 36 -3 38 -52 49 -23 5
-28 12 -28 35 0 27 -2 28 -61 35 -62 6 -138 6 -216 -1z"/>
<path d="M6400 6041 c0 -39 -1 -40 -37 -43 -35 -3 -38 -5 -39 -36 -1 -26 3
-35 19 -41 39 -15 57 -2 57 40 0 37 0 38 43 41 41 3 42 4 45 41 l3 37 -45 0
-46 0 0 -39z"/>
<path d="M82 6040 c-2 -29 -1 -30 38 -30 38 0 40 2 40 30 0 28 -2 30 -38 30
-35 0 -38 -2 -40 -30z"/>
<path d="M880 6059 c0 -5 19 -9 43 -10 46 -1 42 -4 -15 -14 -24 -4 -38 -11
-38 -20 0 -18 -46 -21 -52 -4 -3 9 -9 9 -26 0 -18 -10 -25 -8 -42 9 -11 11
-22 20 -24 20 -1 0 -4 -27 -5 -60 l-2 -60 81 0 80 0 0 40 c0 39 1 40 38 41 37
1 37 1 7 9 l-30 8 33 1 c17 0 32 -3 32 -9 0 -5 9 -10 20 -10 11 0 20 6 20 13
0 9 2 9 8 -1 5 -8 30 -13 63 -13 30 -1 71 -3 91 -6 34 -4 36 -7 35 -36 -2 -30
0 -32 36 -35 34 -3 37 -1 37 22 0 42 -10 56 -41 56 -26 0 -29 3 -29 33 l0 32
-160 1 c-88 1 -160 -2 -160 -7z m140 -13 c0 -11 -19 -15 -25 -6 -3 5 1 10 9
10 9 0 16 -2 16 -4z m37 -2 c-3 -3 -12 -4 -19 -1 -8 3 -5 6 6 6 11 1 17 -2 13
-5z"/>
<path d="M1404 6061 c3 -5 -5 -11 -17 -15 -31 -7 -31 -36 0 -36 13 0 26 0 31
0 4 0 7 14 8 30 1 20 -4 30 -13 30 -8 0 -12 -4 -9 -9z"/>
<path d="M2550 6055 c-9 -11 -16 -13 -24 -5 -17 17 -26 12 -26 -15 0 -22 3
-25 24 -19 13 3 27 1 30 -5 4 -6 13 -11 19 -11 8 0 7 3 -2 9 -8 5 -12 19 -9
35 6 30 5 31 -12 11z"/>
<path d="M2090 6050 c0 -5 5 -10 10 -10 6 0 10 5 10 10 0 6 -4 10 -10 10 -5 0
-10 -4 -10 -10z"/>
<path d="M4498 6053 c7 -3 16 -2 19 1 4 3 -2 6 -13 5 -11 0 -14 -3 -6 -6z"/>
<path d="M1512 5963 l3 -38 81 -3 c78 -3 82 -2 88 20 15 57 13 58 -85 58 l-90
0 3 -37z"/>
<path d="M3284 5986 c-3 -8 -4 -25 -2 -38 2 -19 10 -24 41 -26 l37 -3 0 40 c0
40 -1 41 -35 41 -22 0 -38 -6 -41 -14z"/>
<path d="M3930 5961 l0 -39 118 -2 c64 -1 134 -3 155 -3 23 -1 37 -6 37 -14 0
-7 -4 -13 -10 -13 -5 0 -10 -12 -9 -27 l1 -28 8 25 c8 24 8 24 9 3 1 -20 6
-23 41 -23 l40 0 0 40 c0 31 -4 40 -17 41 -10 1 -25 2 -33 3 -9 0 -17 15 -20
36 l-5 35 -157 3 -158 3 0 -40z"/>
<path d="M8 5973 c7 -3 16 -2 19 1 4 3 -2 6 -13 5 -11 0 -14 -3 -6 -6z"/>
<path d="M1090 5945 c0 -24 -3 -25 -59 -25 -33 0 -63 -4 -66 -10 -3 -5 -26
-10 -51 -10 -41 0 -44 -2 -44 -27 0 -28 20 -71 20 -45 0 9 29 12 110 12 l110
0 0 65 c0 37 -4 65 -10 65 -5 0 -10 -11 -10 -25z"/>
<path d="M2040 5960 c0 -5 5 -10 10 -10 6 0 10 5 10 10 0 6 -4 10 -10 10 -5 0
-10 -4 -10 -10z"/>
<path d="M2172 5930 c-15 -24 -15 -30 -1 -30 16 0 36 24 31 38 -5 17 -15 15
-30 -8z"/>
<path d="M575 5912 c-9 -9 -5 -61 4 -67 5 -3 36 -7 68 -9 56 -4 58 -5 58 -33
1 -42 12 -53 53 -53 l37 0 -3 45 c-2 25 -8 45 -13 45 -5 0 -9 -6 -9 -12 0 -10
-3 -9 -9 1 -5 7 -14 10 -20 7 -13 -8 -21 9 -24 50 -2 29 -3 29 -70 30 -37 0
-69 -1 -72 -4z"/>
<path d="M1360 5880 l0 -40 40 0 40 0 0 40 0 40 -40 0 -40 0 0 -40z"/>
<path d="M1760 5880 c0 -39 1 -40 34 -40 37 0 46 -12 46 -61 0 -22 5 -29 19
-29 41 0 51 11 51 56 0 42 -1 44 -30 44 -19 0 -30 5 -29 13 6 49 0 57 -46 57
l-45 0 0 -40z"/>
<path d="M3760 5901 c-5 -11 -10 -29 -10 -40 0 -20 -7 -21 -152 -23 l-153 -3
-1 -60 c0 -33 1 -50 3 -38 4 21 8 22 121 20 111 -2 118 -3 127 -24 11 -26 25
-30 25 -8 0 8 9 15 20 15 17 0 20 7 20 50 0 46 2 50 24 50 23 0 24 -4 31 -80
l7 -80 52 -1 c28 -1 58 -3 66 -4 8 -1 23 -3 33 -4 21 -1 23 -21 2 -21 -21 0
-19 -16 3 -25 16 -7 15 -8 -3 -16 -12 -5 75 -8 210 -8 127 0 245 0 263 0 33
-1 33 -1 31 -46 -2 -29 -7 -45 -16 -45 -7 0 -13 4 -13 10 0 5 -6 7 -13 5 -7
-3 -252 -6 -545 -8 l-532 -2 0 42 0 43 -40 0 c-39 0 -40 -1 -40 -34 0 -22 -6
-36 -16 -40 -22 -8 -26 -7 -49 10 -17 13 -18 16 -5 24 27 18 -9 30 -91 30 -41
0 -80 5 -86 11 -8 8 -13 8 -17 0 -4 -6 -20 -11 -37 -11 -28 0 -35 -10 -30 -48
2 -10 -16 -12 -71 -10 -71 3 -73 4 -76 31 l-3 27 -227 0 c-125 0 -232 -4 -237
-8 -12 -8 -13 -22 -2 -39 6 -10 -4 -13 -42 -13 l-51 0 0 35 0 36 -157 -3 -158
-3 -3 -32 c-3 -27 -8 -33 -27 -33 -13 0 -30 -3 -39 -6 -13 -5 -16 2 -16 35 l0
41 -85 -2 c-79 -1 -87 -3 -104 -27 -29 -39 -51 -14 -51 55 0 53 0 54 -30 54
-27 0 -30 -4 -36 -39 l-6 -39 -71 -7 c-40 -4 -152 -5 -251 -4 -170 3 -180 2
-187 -16 -7 -18 -8 -19 -8 -2 -1 11 -6 17 -13 14 -7 -2 -12 -10 -10 -16 1 -6
-2 -11 -8 -11 -5 0 -10 6 -10 14 0 22 -14 26 -51 16 -21 -6 -35 -6 -39 0 -6
10 -541 7 -558 -4 -6 -3 -9 -17 -7 -31 2 -22 -2 -25 -30 -25 -29 0 -32 3 -31
28 l1 27 -127 3 -128 3 0 -110 c0 -74 4 -112 12 -117 6 -4 14 -2 16 5 3 9 7 9
18 1 10 -9 15 -6 20 14 3 14 4 33 0 41 -4 13 9 15 84 15 l90 0 0 -40 c0 -37
-2 -39 -19 -29 -23 15 -53 5 -45 -16 7 -17 24 -20 24 -4 0 5 5 7 10 4 15 -9
12 -75 -2 -76 -7 0 -57 0 -110 1 l-98 2 0 -35 c0 -32 3 -35 38 -41 20 -3 56
-6 80 -6 l42 0 0 -39 c0 -40 0 -40 -43 -44 -23 -2 14 -5 83 -7 110 -4 115 -4
43 -7 -145 -6 -89 -19 77 -19 163 1 227 -12 78 -16 l-83 -2 79 -3 c44 -2 83 0
88 5 13 13 78 2 78 -14 0 -8 5 -14 10 -14 6 0 10 -7 10 -15 0 -8 -4 -15 -10
-15 -5 0 -10 -14 -10 -31 0 -29 -2 -30 -38 -29 -20 1 -146 2 -279 1 l-243 -1
0 -81 0 -81 80 7 c60 5 80 4 80 -5 0 -9 3 -10 14 -1 11 9 15 7 19 -8 6 -24 -7
-46 -22 -37 -6 4 -11 1 -11 -7 0 -14 -62 -18 -76 -4 -4 4 -25 7 -46 7 l-38 0
0 -50 0 -50 125 0 125 0 0 40 c0 53 18 51 23 -2 l4 -43 1 43 c1 23 7 42 12 42
6 0 10 -19 11 -42 1 -53 5 -41 14 35 l6 57 40 0 c28 0 39 4 39 15 0 12 16 15
81 15 l82 0 -6 -72 c-3 -39 -11 -76 -18 -82 -9 -8 -10 -1 -5 32 l6 42 -41 0
-41 0 4 -40 c2 -22 0 -40 -4 -40 -4 0 -11 18 -14 40 -8 49 -24 53 -22 5 2 -43
1 -43 -46 -49 -36 -5 -63 -16 -37 -16 7 0 9 -5 6 -10 -3 -6 6 -15 20 -20 40
-15 55 -35 55 -74 0 -23 5 -36 13 -36 9 0 11 12 9 40 -3 25 0 40 7 40 6 0 11
-17 11 -39 0 -22 5 -43 10 -46 6 -3 10 -22 10 -41 0 -32 -2 -34 -32 -35 -30 0
-31 -1 -11 -9 15 -6 31 -5 48 4 18 9 22 16 13 19 -9 4 -7 6 5 6 9 1 17 -3 17
-9 0 -5 14 -10 30 -10 27 0 30 -3 30 -33 l0 -32 150 -1 c118 -1 150 2 150 12
0 8 6 11 15 8 11 -4 15 0 15 16 0 16 -4 20 -15 16 -8 -3 -15 -1 -15 3 0 5 4
11 9 13 5 2 11 26 12 53 4 45 2 50 -16 46 -53 -10 -165 -12 -165 -3 0 6 8 13
18 15 10 3 6 5 -10 6 -26 1 -41 21 -16 21 15 0 1 13 -17 16 -8 1 -15 -2 -15
-8 0 -5 -7 -8 -16 -6 -8 2 -15 6 -15 10 0 4 -4 21 -9 36 -4 16 -4 48 0 71 4
23 3 44 -1 47 -5 3 -9 25 -9 49 l0 45 620 0 620 0 0 -40 c0 -39 1 -40 35 -40
19 0 35 4 35 8 0 5 6 17 14 27 12 16 16 17 30 6 14 -12 16 -10 16 13 0 14 5
26 10 26 6 0 10 18 10 40 0 22 -3 40 -7 40 -12 0 -35 54 -25 58 5 1 7 24 4 51
-5 52 3 63 36 54 15 -4 22 -15 25 -42 4 -32 4 -31 3 7 l-1 42 53 0 c48 0 53
-2 64 -27 l11 -28 7 25 c8 24 8 24 9 2 1 -16 6 -22 19 -20 11 2 18 -4 20 -19
3 -20 9 -23 53 -23 l49 0 0 -40 c0 -38 -2 -40 -30 -40 -16 0 -30 -4 -30 -10 0
-5 -9 -10 -20 -10 -13 0 -20 -7 -20 -20 0 -14 -7 -20 -22 -20 -18 0 -20 -2 -8
-9 8 -6 18 -7 22 -5 4 3 8 -9 8 -25 0 -29 2 -31 40 -31 37 0 40 -2 45 -34 13
-65 5 -81 -42 -84 l-43 -3 0 45 0 46 -80 0 -80 0 0 -40 0 -40 -40 0 -40 0 0
-40 0 -40 -45 0 c-40 0 -45 3 -46 23 -1 21 -1 21 -9 -3 -7 -21 -8 -19 -9 18
-1 53 -21 56 -21 3 0 -32 -4 -40 -22 -45 -44 -11 -88 -7 -88 9 0 9 -10 19 -22
24 -20 7 -20 8 -2 15 18 7 17 8 -6 21 -37 21 -55 18 -68 -10 -13 -28 -30 -32
-38 -10 -4 8 -10 12 -15 9 -5 -3 -9 2 -9 10 0 12 -10 16 -40 16 -40 0 -40 0
-40 39 l0 38 -262 1 c-226 1 -545 -12 -420 -16 77 -3 45 -22 -40 -24 l-83 -2
85 -6 85 -6 -82 -2 c-53 -1 -83 -6 -83 -13 0 -6 7 -9 15 -5 8 3 52 1 97 -5 46
-5 127 -10 181 -9 62 1 97 -3 97 -10 0 -5 -17 -11 -37 -12 -37 -1 -37 -1 -5
-5 65 -8 29 -23 -60 -25 l-93 -2 95 -6 c52 -3 87 -7 78 -8 -14 -2 -18 -11 -18
-41 0 -35 3 -40 28 -44 15 -3 -12 -3 -60 0 l-88 5 1 -28 c1 -24 2 -25 6 -6 4
18 11 22 44 22 21 0 39 -4 39 -10 0 -5 18 -10 40 -10 54 0 51 -20 -2 -21 -24
-1 7 -6 67 -10 61 -5 116 -6 122 -4 7 2 13 0 13 -5 0 -12 148 -11 155 1 4 5
43 10 88 11 l82 1 -65 6 c-58 5 -62 7 -31 14 18 4 57 7 87 7 29 0 86 4 126 9
40 5 118 11 173 14 55 2 83 2 63 0 -21 -2 -38 -8 -38 -13 0 -13 311 -4 320 10
8 13 80 4 80 -10 0 -11 -68 -22 -82 -14 -7 4 -8 3 -4 -4 4 -7 25 -12 47 -12
l39 0 0 -55 0 -55 -157 -1 c-745 -3 -732 -3 -738 -18 -5 -14 -7 -14 -15 -1 -7
10 -10 11 -10 3 0 -7 -4 -13 -10 -13 -13 0 -13 27 0 32 17 5 -311 -1 -368 -8
-41 -4 -51 -8 -43 -18 6 -7 8 -16 4 -20 -4 -4 -1 -11 7 -16 8 -5 12 -11 10
-14 -3 -2 -105 -6 -228 -8 -190 -2 -224 -1 -232 12 -6 10 -10 11 -10 3 0 -9
-20 -13 -65 -13 l-65 0 0 39 0 39 -200 0 -200 0 0 -79 0 -79 314 0 314 0 7
-40 c9 -55 35 -54 35 1 0 38 2 40 28 39 15 -1 103 -2 196 -1 l168 1 -4 40 -4
40 63 0 c49 0 61 -3 57 -14 -3 -7 -11 -13 -17 -12 -7 0 -13 -3 -14 -9 -1 -5 5
-9 13 -7 8 2 14 -5 14 -18 0 -18 6 -20 54 -20 34 0 56 5 59 13 4 10 6 10 6 0
1 -10 31 -13 116 -13 l115 0 0 -39 0 -39 -87 -7 c-49 -5 -173 -6 -278 -3 -124
3 -220 1 -275 -7 -47 -7 -70 -13 -52 -14 50 -2 28 -21 -23 -21 -50 0 -69 -16
-30 -26 14 -3 25 -10 25 -16 0 -5 4 -7 9 -4 4 3 6 -6 3 -21 -4 -19 -1 -24 9
-21 8 3 14 16 14 29 l0 24 182 3 182 3 3 -38 c3 -36 5 -38 38 -38 33 0 35 2
35 32 0 17 2 34 5 37 3 3 61 6 130 7 71 1 132 6 143 13 15 8 21 8 24 -1 3 -8
24 -13 58 -13 30 0 57 -5 61 -11 11 -18 -17 -88 -32 -82 -8 3 -14 0 -14 -7 0
-10 -3 -10 -15 0 -16 13 -18 11 -28 -37 -5 -21 -2 -23 43 -23 42 0 49 -3 53
-22 l4 -23 2 23 c0 12 5 22 10 22 5 0 12 -10 16 -22 l7 -23 8 25 c5 17 8 19 9
8 1 -14 10 -18 41 -18 38 0 54 -13 28 -23 -7 -3 3 -6 22 -7 32 -2 33 -3 10
-10 -32 -10 24 -13 193 -10 91 1 117 -1 118 -12 6 -59 4 -67 -16 -72 -12 -3
-32 -4 -45 -1 -12 2 -119 5 -236 5 -178 1 -214 4 -214 16 0 8 -7 14 -15 14 -8
0 -14 -5 -13 -12 2 -6 -5 -14 -15 -16 -13 -3 -17 1 -15 15 3 15 -4 18 -42 18
-33 0 -45 -4 -45 -15 0 -16 -168 -19 -1122 -20 l-393 0 0 -80 0 -80 80 0 80 0
0 40 0 40 123 0 c67 0 137 -4 154 -9 21 -6 35 -6 39 0 6 10 103 10 151 1 19
-3 23 -11 23 -38 0 -31 3 -34 30 -34 28 0 30 2 30 40 l0 40 191 -5 c190 -5
214 -8 204 -25 -3 -5 -1 -11 5 -15 6 -4 10 5 10 19 l0 25 245 -2 245 -2 0 -27
c0 -16 6 -29 13 -30 38 -4 42 -2 47 27 5 30 5 30 78 33 44 2 79 -2 87 -8 9 -7
20 -8 32 -2 10 4 81 9 158 9 77 0 121 -2 98 -4 -54 -5 -56 -23 -3 -23 22 0 40
-4 40 -10 0 -5 -18 -10 -40 -10 -22 0 -40 -4 -40 -10 0 -5 19 -10 42 -10 50 0
46 -10 -6 -12 -35 -1 -36 -2 -36 -40 l0 -38 45 0 c47 0 49 2 45 53 -2 30 16
37 23 10 4 -16 5 -16 6 1 1 14 6 17 24 12 12 -3 26 -6 31 -6 5 0 2 -7 -5 -16
-12 -14 -11 -16 6 -13 11 3 21 10 21 17 1 6 2 17 3 22 0 6 7 10 14 10 10 0 13
-11 12 -35 -2 -19 1 -38 6 -41 5 -3 9 29 9 70 l0 76 119 0 120 0 3 -37 3 -38
87 -3 88 -3 -6 33 c-10 56 -11 58 -57 58 -44 0 -44 1 -43 33 l1 32 -162 3
-163 2 0 40 c0 40 0 40 40 40 31 0 38 3 34 15 -4 8 -3 26 0 40 6 22 12 25 51
25 38 0 45 3 45 19 0 11 -6 22 -12 24 -10 4 -10 6 0 6 6 1 12 5 12 11 0 5 -37
10 -82 12 l-83 3 -3 43 -3 43 93 -3 93 -3 3 -37 c3 -35 6 -38 33 -38 27 0 29
-2 29 -40 0 -39 1 -40 35 -40 22 0 38 -6 41 -15 4 -8 15 -15 25 -15 10 0 19
-4 19 -10 0 -14 27 -12 33 3 3 6 6 0 6 -15 1 -26 4 -28 42 -28 l40 0 -3 38
c-2 29 -7 37 -23 38 -11 1 -47 2 -79 3 l-59 1 21 23 c15 16 18 26 11 40 -9 15
-5 17 26 17 34 0 35 1 35 40 0 38 2 40 30 40 28 0 30 -2 31 -42 2 -30 5 -18
12 40 l10 82 35 0 c31 0 34 -2 30 -24 -3 -14 -1 -31 3 -38 6 -8 9 1 9 25 0 36
1 37 39 37 38 0 38 0 38 40 0 22 -4 40 -8 40 -5 0 -9 18 -9 40 0 38 -2 40 -30
40 -28 0 -30 -2 -30 -38 l0 -37 -45 3 c-42 4 -45 6 -45 32 0 27 3 29 43 33
l42 4 -42 1 c-42 2 -43 3 -43 38 l0 37 -80 -6 c-75 -5 -80 -4 -80 15 0 27 -24
48 -54 48 -21 0 -26 -5 -26 -25 0 -23 -4 -25 -40 -25 l-41 0 5 77 5 77 68 3
c84 4 117 -3 109 -22 -4 -11 3 -15 25 -15 22 0 30 -4 26 -14 -6 -16 76 -26
215 -26 109 0 118 -3 118 -47 0 -27 4 -33 18 -31 14 2 18 -5 20 -39 2 -29 -1
-43 -9 -43 -7 0 -4 -7 7 -15 18 -13 17 -14 -14 -21 -24 -5 -30 -9 -20 -15 24
-15 66 -10 71 9 3 14 6 12 17 -10 7 -16 16 -28 20 -28 9 0 30 46 30 65 0 12
17 15 85 15 l85 0 0 -45 c0 -33 4 -45 15 -45 8 0 15 5 15 10 0 6 11 10 25 10
23 0 25 4 25 45 l0 45 -40 0 c-29 0 -40 4 -40 15 0 11 11 15 40 15 53 0 51 18
-2 23 l-43 4 43 1 42 2 0 46 0 46 -77 -5 c-48 -3 -62 -2 -38 3 l40 7 -42 1
c-24 1 -43 6 -43 12 0 6 43 8 119 3 111 -6 119 -5 125 13 3 10 3 -2 1 -28 l-5
-48 40 0 c22 0 40 -4 40 -10 0 -5 18 -10 40 -10 29 0 40 -4 40 -15 0 -11 -11
-15 -40 -15 -29 0 -40 -4 -40 -15 0 -11 11 -15 40 -15 36 0 40 -2 40 -25 0
-22 4 -25 40 -25 39 0 40 -1 40 -35 0 -35 -6 -39 -44 -35 -13 1 -16 -2 -10
-12 6 -10 4 -10 -9 1 -13 10 -41 12 -112 9 -87 -4 -128 -14 -97 -25 6 -3 10
-9 6 -14 -9 -15 -24 -10 -24 9 0 10 -7 19 -15 19 -8 0 -15 -4 -15 -9 0 -4 5
-8 10 -8 6 0 10 -9 10 -20 0 -11 -4 -20 -9 -20 -13 0 -34 -57 -26 -70 4 -6 3
-34 -1 -63 l-8 -52 -7 45 -6 45 -1 -42 c-2 -38 -5 -42 -29 -45 -24 -3 -28 -8
-31 -40 -3 -30 -7 -38 -23 -38 -10 0 -19 6 -19 13 0 9 -2 9 -8 0 -4 -6 -25
-13 -47 -15 -38 -3 -40 -5 -45 -43 -5 -37 -7 -39 -40 -40 -34 0 -35 -1 -33
-37 l2 -38 -199 0 c-159 0 -201 -3 -207 -14 -4 -8 -17 -16 -28 -19 -18 -4 -18
-5 3 -6 12 0 22 -7 22 -15 0 -8 5 -18 10 -21 6 -4 78 -6 160 -6 l150 2 0 -41
c0 -39 -1 -40 -35 -40 -34 0 -35 -1 -35 -40 l0 -40 -85 0 -85 0 0 -39 c0 -38
0 -38 -37 -37 -35 2 -38 5 -41 34 l-3 32 -62 0 c-84 0 -89 5 -96 83 -1 4 -19
7 -41 7 -39 0 -40 -1 -40 -34 0 -34 1 -35 43 -38 41 -3 42 -4 45 -42 2 -21 0
-42 -5 -47 -4 -4 -37 -9 -73 -10 l-65 -3 -5 -35 c-5 -35 -6 -36 -52 -39 l-48
-3 0 45 0 46 50 0 c46 0 50 2 50 24 0 47 -10 56 -56 56 l-44 0 0 -40 0 -39
-77 -3 -78 -3 -3 -77 -3 -78 36 0 c34 0 35 1 36 43 1 27 3 33 6 17 3 -14 10
-31 15 -37 7 -9 6 -14 -3 -15 -8 -1 40 -4 106 -8 l120 -5 3 -37 c3 -37 4 -38
43 -38 38 0 39 1 39 35 l0 34 75 -1 75 -1 0 -34 c0 -33 -2 -34 -32 -31 -32 3
-33 2 -33 -37 l0 -40 75 0 75 0 3 38 c3 35 5 37 37 37 32 0 33 -1 37 -45 l3
-45 -37 0 c-37 0 -38 -1 -38 -35 l0 -35 50 0 c36 0 50 4 50 14 0 8 6 17 13 20
10 5 10 7 0 12 -19 8 -16 24 3 17 8 -3 26 0 38 6 13 7 36 11 52 9 26 -3 29 -7
29 -38 0 -33 -2 -35 -38 -38 l-39 -3 6 -42 c14 -108 17 -117 42 -117 21 0 24
5 24 35 l0 35 85 0 85 0 0 -40 c0 -25 -5 -40 -12 -41 -7 -1 -24 -2 -38 -2 -22
-2 -25 -6 -24 -39 l1 -38 -43 0 -44 0 0 -40 0 -40 -47 0 -48 0 0 45 c0 25 3
45 8 45 4 0 7 13 7 29 0 36 -8 38 -232 47 l-168 7 0 -47 0 -46 -40 0 -40 0 0
-75 c0 -79 1 -80 53 -89 23 -4 27 -1 27 20 0 21 4 24 40 24 l40 0 0 -55 0 -55
38 -1 c20 0 55 -3 77 -7 36 -7 40 -11 45 -42 5 -33 7 -35 47 -38 39 -3 42 -5
45 -35 3 -28 7 -32 43 -39 22 -4 73 -7 113 -7 l72 -1 0 -29 c0 -49 9 -61 46
-61 31 0 34 -3 34 -30 0 -29 1 -30 53 -32 28 -1 63 -2 77 -3 21 0 26 -6 28
-33 4 -36 13 -40 102 -44 54 -3 54 -3 63 -40 l9 -38 78 0 78 0 12 -35 c6 -19
18 -36 26 -36 8 -1 19 -3 24 -4 6 -1 28 -3 49 -4 38 -1 40 -3 46 -40 l6 -39
75 -7 c73 -7 74 -8 74 -36 0 -27 30 -56 43 -43 3 3 12 2 19 -2 9 -6 6 -10 -12
-15 l-25 -7 26 -1 c15 -1 29 5 33 14 4 11 22 15 76 15 l70 0 0 -38 0 -38 -312
0 -313 1 -3 38 c-3 37 -4 37 -48 37 -44 0 -44 0 -44 -35 0 -32 -2 -35 -29 -35
-27 0 -30 3 -33 38 -3 36 -4 37 -45 40 l-43 3 -1 45 c-1 24 -3 49 -4 54 -1 6
-3 17 -4 25 -1 10 -12 15 -36 15 -34 0 -35 -1 -35 -40 l0 -40 -40 0 -40 0 0
46 0 45 -42 -3 c-42 -3 -43 -4 -46 -40 -3 -33 -6 -37 -35 -40 -28 -3 -32 -7
-35 -35 -3 -30 -6 -33 -38 -33 -20 0 -34 5 -35 13 -1 6 -3 33 -5 59 -3 33 1
51 12 62 8 9 11 16 5 16 -6 0 -11 18 -11 40 0 29 4 40 15 40 8 0 15 9 15 20 0
11 -7 20 -15 20 -8 0 -15 -9 -15 -20 0 -20 -5 -21 -81 -18 l-81 3 -3 65 c-2
36 -3 68 -4 73 0 4 -19 7 -40 7 -39 0 -40 0 -47 45 -6 43 -8 45 -40 45 l-33 0
-3 -78 c-3 -69 -5 -77 -23 -77 -33 -1 -45 -14 -45 -51 0 -34 0 -34 -45 -34
l-45 0 0 40 0 40 43 0 42 0 -1 58 c-2 108 6 99 -84 106 -76 7 -80 9 -86 34 -3
15 -7 32 -9 38 -4 15 -51 24 -63 12 -5 -5 -25 -8 -43 -6 l-34 3 -3 78 -3 77
-38 0 c-37 0 -39 1 -45 41 l-7 41 -62 -6 c-34 -3 -68 -2 -76 3 -16 10 -6 31
15 31 8 0 14 9 14 20 0 13 5 18 15 14 11 -5 15 1 15 24 0 17 -6 33 -12 35 -10
4 -10 6 0 6 27 2 10 20 -18 19 -27 -1 -30 -4 -30 -35 0 -33 -1 -33 -45 -33
l-45 0 0 40 0 40 -41 0 -40 0 3 37 c3 33 7 39 33 44 17 4 24 7 18 8 -7 0 -13
14 -13 30 0 34 -14 41 -76 41 l-44 0 0 59 0 60 -42 4 -43 4 43 1 c23 1 42 6
42 12 0 5 -15 9 -32 8 -18 -1 -54 -1 -80 0 l-48 2 0 44 0 45 -42 -2 -43 -2 -3
43 c-3 40 -4 42 -37 42 -34 0 -45 13 -45 51 0 15 -7 19 -35 19 -34 0 -35 -1
-35 -40 l0 -40 -37 2 c-37 3 -38 5 -41 46 -3 42 -3 42 -43 42 -39 0 -39 0 -39
-40 l0 -40 -40 0 c-39 0 -40 1 -40 33 0 42 -3 45 -39 39 -26 -3 -30 -9 -33
-43 -3 -35 -1 -40 22 -47 24 -6 23 -7 -10 -13 -35 -6 -35 -6 -10 -17 26 -11
25 -12 -42 -17 -36 -3 -37 -2 -40 33 -3 36 -5 37 -45 40 -39 3 -42 5 -45 35
-3 27 -7 31 -33 31 -27 0 -30 -3 -33 -37 l-3 -37 -80 0 -79 0 0 35 c0 35 -1
35 -43 35 l-43 0 4 -35 c4 -32 7 -35 38 -35 33 0 34 -1 34 -40 0 -40 0 -40
-39 -40 -39 0 -40 1 -43 38 l-3 37 -76 3 -77 3 -6 40 c-6 38 -8 40 -39 37 -29
-3 -32 -6 -32 -38 0 -33 2 -35 38 -38 35 -3 37 -5 37 -38 0 -33 -1 -34 -40
-34 -39 0 -40 1 -40 35 0 34 -1 35 -40 35 l-40 0 0 40 0 40 -80 0 -80 0 0 -40
0 -40 -40 0 -40 0 0 -1600 0 -1600 1875 0 1875 0 1 28 c1 15 1 33 0 40 -1 7
11 12 34 12 34 0 35 -1 35 -40 l0 -40 90 0 90 0 0 45 0 45 -40 0 -40 0 0 75 0
75 -45 0 -45 0 0 40 0 40 -42 0 c-70 0 -87 8 -90 44 -3 29 -6 31 -48 36 -45 5
-45 5 -48 46 l-3 41 46 -1 46 -1 -3 80 -3 80 -44 3 -44 3 7 52 c3 29 6 60 6
70 0 10 6 17 13 15 30 -6 67 13 68 35 3 50 4 52 29 51 14 -1 28 -2 33 -3 4 0
7 -17 7 -37 0 -35 1 -35 38 -32 32 3 37 6 40 32 4 35 -10 51 -46 51 -27 0 -27
1 -30 76 l-3 77 -79 7 c-78 7 -79 7 -70 31 5 13 6 24 2 24 -4 0 -5 22 -4 50
l4 50 -46 0 -46 0 0 80 0 80 45 0 45 0 0 -40 c0 -39 1 -40 35 -40 34 0 35 1
35 41 l0 42 61 -7 c34 -3 73 -6 85 -6 20 0 24 -5 24 -29 0 -17 5 -33 10 -36
10 -6 115 -14 188 -15 29 0 32 -3 32 -30 0 -28 -2 -30 -40 -30 l-40 0 0 -40 0
-40 40 0 40 0 0 -45 0 -45 75 0 75 0 0 35 0 35 103 1 c56 1 152 1 212 0 61 0
124 -1 142 -1 28 0 32 -3 35 -32 l3 -33 78 -3 77 -3 0 -34 0 -33 -85 -7 -85
-7 0 -38 0 -38 365 -7 365 -7 0 -39 0 -39 120 0 120 0 0 -35 c0 -35 0 -35 44
-35 l44 0 -6 -45 -5 -45 42 0 41 0 0 -39 0 -39 160 5 160 6 0 -40 0 -40 61 -7
c34 -3 124 -6 200 -6 l139 0 0 1800 0 1800 -35 0 c-33 0 -35 -2 -35 -35 l0
-35 -91 0 -91 0 4 -37 3 -38 -83 -3 -82 -3 0 -37 c0 -35 -2 -37 -32 -36 -31 1
-33 3 -36 42 -3 42 -3 42 -43 42 -37 0 -39 2 -39 30 l0 30 -75 0 -75 0 0 -35
0 -35 -52 -1 c-29 -1 -65 0 -80 1 -26 1 -28 -1 -28 -39 l0 -41 -45 0 -45 0 0
-39 c0 -39 -1 -40 -37 -43 -37 -3 -38 -4 -35 -40 l4 -38 -46 0 -46 0 0 41 0
40 -147 -2 c-82 -1 -154 -4 -160 -7 -7 -2 -13 -17 -13 -33 0 -27 -3 -29 -39
-29 -39 0 -40 1 -43 38 -3 36 -4 37 -40 36 -21 0 -39 3 -39 8 -1 4 -3 13 -4
18 -1 6 -3 17 -4 25 -1 14 -20 16 -126 14 -69 0 -128 -5 -131 -10 -3 -5 2 -9
10 -9 12 0 13 -5 7 -22 -9 -25 -10 -25 -93 -27 l-57 -1 -3 -37 c-3 -42 2 -40
-115 -42 l-43 -1 0 -40 c0 -40 0 -40 -39 -40 -39 0 -40 1 -43 38 -2 22 -8 37
-15 36 -7 -1 -42 -2 -78 -2 l-65 -2 0 -35 0 -35 -125 0 -125 0 0 -45 c0 -45 0
-45 -35 -45 -32 0 -35 -2 -35 -30 0 -28 -3 -30 -34 -30 -30 0 -35 3 -38 28 -3
23 -9 28 -45 36 -42 9 -43 10 -43 50 l0 41 80 -3 80 -4 0 51 0 51 -37 1 -38 1
30 10 c17 5 36 10 43 10 6 1 12 9 12 18 0 9 7 25 15 36 14 19 14 19 15 -1 0
-17 2 -17 10 -5 6 10 10 11 10 3 0 -7 8 -13 18 -13 10 0 28 -7 40 -16 18 -12
22 -13 22 -1 0 19 117 29 244 20 l96 -6 0 41 0 42 -40 0 c-36 0 -40 3 -40 25
0 25 -1 25 -80 25 -47 0 -80 -4 -80 -10 0 -5 -18 -10 -40 -10 -53 0 -51 -18 3
-23 23 -2 4 -4 -43 -5 l-85 -2 -2 27 c-1 16 2 21 7 13 10 -17 30 -4 30 21 0
10 5 19 10 19 6 0 10 18 10 40 0 33 3 40 20 40 18 0 20 7 20 81 0 71 2 80 15
69 12 -10 15 -10 15 0 0 9 3 10 14 1 17 -14 26 5 26 55 0 33 -1 34 -38 34 -25
0 -41 6 -49 19 -11 17 -9 18 34 13 32 -3 48 -1 54 9 6 10 9 6 9 -13 0 -19 5
-28 16 -28 9 0 18 -9 21 -20 3 -11 12 -20 19 -20 8 0 14 -6 14 -14 0 -17 59
-27 116 -19 34 4 44 10 44 24 0 17 9 19 80 19 73 0 80 2 80 19 0 16 -8 21 -42
24 l-43 4 43 1 c23 1 42 6 42 11 0 6 -19 12 -42 14 l-43 4 43 1 c56 3 54 22
-3 22 l-45 0 0 45 0 45 45 0 45 0 0 39 c0 59 8 71 46 71 24 0 34 -5 34 -15 0
-13 26 -15 170 -15 l170 0 0 -39 0 -39 70 5 70 5 0 -41 0 -41 -67 1 c-69 2
-106 15 -82 30 7 4 9 14 6 22 -6 17 -82 9 -82 -10 0 -6 -3 -14 -7 -18 -4 -4
-4 -13 -2 -20 4 -10 -1 -12 -16 -8 -15 4 -18 8 -10 13 17 11 -22 23 -44 14
-12 -5 -16 0 -16 20 0 24 -4 26 -40 26 -36 0 -40 -2 -40 -25 0 -22 -4 -25 -39
-25 -35 0 -40 3 -44 28 -3 15 -4 7 -3 -18 1 -38 4 -45 26 -51 24 -7 24 -7 3
-8 -36 -2 -27 -21 10 -22 l32 -2 -35 -6 -35 -7 30 -8 c17 -5 123 -10 238 -12
l207 -3 0 35 c0 27 5 36 24 44 13 5 26 15 28 22 4 10 8 9 21 -3 9 -9 13 -19
10 -23 -4 -3 -1 -6 5 -6 7 0 12 -6 12 -13 0 -20 35 -57 54 -57 12 0 16 -10 16
-46 0 -25 -4 -43 -9 -40 -4 3 -161 6 -349 6 -251 1 -342 5 -346 13 -3 9 -5 9
-5 0 -1 -9 -25 -13 -86 -13 l-85 0 0 -65 0 -65 -32 1 c-18 0 -55 5 -83 10 -27
5 -69 11 -92 13 -42 4 -43 3 -43 -25 l0 -29 125 0 c104 0 125 -2 125 -15 0
-12 15 -15 79 -15 69 0 80 -2 86 -19 4 -14 14 -19 41 -17 20 1 38 -2 40 -6 8
-13 84 -9 84 4 0 9 3 9 12 0 17 -17 26 -15 31 6 4 16 5 16 6 0 1 -16 15 -18
135 -18 88 0 137 4 142 11 4 8 9 7 15 -2 6 -9 9 1 9 29 0 29 4 41 11 36 6 -4
8 -20 4 -40 -6 -32 -5 -34 22 -30 15 2 21 1 12 -1 -16 -4 -32 -67 -20 -78 2
-3 80 -5 172 -5 l169 0 -6 33 c-3 17 -7 37 -9 44 -5 14 17 23 58 23 27 1 29 2
14 11 -9 5 -21 8 -26 5 -16 -11 -40 5 -34 21 5 12 3 14 -8 8 -26 -16 -79 -16
-79 0 0 11 11 15 40 15 29 0 40 4 40 15 0 11 11 15 39 15 22 0 41 -4 43 -9 2
-5 19 -11 38 -13 29 -2 35 0 36 17 3 56 2 55 49 55 47 0 50 -3 45 -57 -1 -20
3 -23 34 -23 19 0 37 4 41 10 3 5 12 7 20 3 10 -3 15 1 16 13 1 14 3 12 9 -6
8 -27 17 -16 22 30 2 19 9 25 28 27 14 1 51 5 82 9 56 7 57 8 51 33 -3 14 -8
30 -10 34 -5 8 -587 9 -608 1 -7 -3 -10 -17 -8 -32 1 -15 0 -20 -3 -12 -4 8
-15 25 -26 36 -14 16 -18 32 -15 60 l4 39 1 -42 c3 -58 19 -55 26 5 3 26 6 52
7 58 3 15 140 27 153 14 7 -7 -12 -10 -52 -10 -34 0 -62 -4 -62 -10 0 -6 23
-7 60 -3 42 4 60 2 60 -6 0 -6 9 -11 20 -11 11 0 20 5 20 10 0 6 27 10 60 10
33 0 60 -4 60 -10 0 -6 43 -10 109 -10 59 0 129 -3 154 -6 43 -6 46 -9 49 -38
l3 -31 323 -2 322 -3 0 80 0 80 -44 0 c-39 0 -45 3 -48 23 -4 28 -32 29 -36 1
-3 -24 -27 -34 -79 -34 -34 0 -48 -19 -15 -21 14 0 14 -2 -3 -9 -19 -8 -19 -9
2 -9 31 -1 40 -21 9 -21 -13 0 -31 -7 -40 -15 -9 -9 -17 -11 -21 -5 -3 5 -15
10 -26 10 -17 0 -19 7 -19 80 l0 80 50 0 c32 0 50 4 50 12 0 9 3 9 12 0 7 -7
20 -12 30 -12 10 0 18 -5 18 -12 0 -9 3 -9 11 -1 13 13 3 36 -12 27 -5 -3 -9
-2 -8 3 5 20 -15 43 -37 43 -30 0 -32 6 -37 103 l-4 77 43 0 44 0 0 40 0 40
40 0 40 0 0 -40 c0 -39 -1 -40 -35 -40 -28 0 -35 -4 -35 -20 0 -18 7 -20 75
-20 l75 0 0 160 c0 159 0 160 -22 161 -22 0 -22 1 -3 8 32 13 -62 25 -200 24
-164 0 -191 -4 -187 -25 2 -10 -2 -18 -8 -18 -5 0 -10 7 -10 15 0 8 -5 15 -10
15 -6 0 -10 -7 -8 -16 6 -32 -19 -25 -26 7 l-6 32 -199 -6 -199 -6 -6 31 c-9
46 -7 58 9 58 8 0 15 5 15 11 0 6 6 9 13 6 21 -8 47 13 47 38 0 16 6 25 15 25
8 0 15 -4 15 -10 0 -6 28 -10 65 -10 41 0 65 4 65 11 0 6 7 9 15 5 12 -4 15 4
15 39 0 25 4 45 10 45 5 0 7 7 4 15 -4 9 0 15 9 15 23 0 25 -9 18 -66 -5 -33
-3 -51 4 -51 6 0 9 18 6 44 l-3 43 56 0 56 0 0 -40 c0 -31 -4 -40 -17 -40 -9
0 -14 -3 -10 -6 3 -3 40 -3 81 1 l76 7 0 39 0 39 -45 0 -45 0 0 -40 c0 -22 -4
-40 -10 -40 -5 0 -10 18 -10 40 0 22 -4 40 -10 40 -5 0 -10 19 -10 41 l0 42
90 -6 c49 -3 114 -3 145 0 l55 6 0 38 0 39 83 1 82 2 -80 10 c-58 7 -80 7 -83
-2 -4 -13 -82 -15 -82 -2 0 5 -36 12 -80 16 -44 4 -80 12 -80 17 0 7 19 8 53
4 129 -16 187 -18 187 -8 0 5 36 13 80 17 l80 7 0 84 0 84 -197 0 c-109 0
-203 4 -208 8 -28 19 -6 107 28 116 20 5 14 26 -7 26 -9 0 -13 13 -12 38 1 32
-2 37 -24 40 -14 2 -29 8 -34 13 -6 5 -51 9 -102 9 -75 0 -93 -3 -98 -16 -8
-21 -8 -59 1 -68 4 -4 7 -24 6 -44 -1 -20 1 -29 4 -18 4 17 12 18 65 12 34 -3
69 -6 79 -6 11 0 19 -4 19 -10 0 -5 -18 -10 -40 -10 -22 0 -40 -4 -40 -9 0 -6
-19 -12 -42 -14 l-43 -4 43 -1 c28 -1 42 -7 42 -16 0 -14 -37 -21 -178 -34
-53 -5 -77 -12 -86 -25 -15 -19 -57 -23 -54 -4 2 9 -25 13 -104 15 -65 2 -108
-1 -108 -7 0 -5 8 -12 18 -14 10 -3 7 -5 -10 -6 -21 -1 -26 3 -21 15 5 13 -2
15 -43 12 -36 -2 -49 -7 -49 -18 0 -15 -10 -16 -57 -11 -22 3 -22 3 2 11 l25
8 -27 1 c-16 1 -28 4 -28 9 0 4 -75 5 -167 2 l-166 -5 -4 -24 c-4 -30 -13 -41
-13 -17 0 12 -5 16 -15 13 -8 -4 -17 -2 -20 3 -4 6 4 10 16 10 26 0 18 12 -11
17 -15 2 -20 -3 -20 -21 0 -17 -7 -26 -24 -30 -13 -3 -31 -9 -39 -12 -12 -4
-16 3 -19 33 l-3 38 -75 3 c-41 2 -79 7 -83 11 -4 4 -5 27 -1 50 l7 43 38 -5
c44 -6 50 -1 17 13 l-23 9 23 0 c15 1 22 7 22 21 0 11 5 20 11 20 7 0 9 12 4
36 -6 35 -5 36 16 31 33 -9 49 10 49 54 0 39 0 39 -40 39 l-40 0 0 -40 0 -40
-80 0 -80 0 0 40 0 40 -57 0 c-82 0 -103 -8 -103 -36 0 -13 -5 -46 -11 -74
-10 -46 -13 -50 -40 -50 -28 0 -29 -2 -29 -45 l0 -45 40 0 c22 0 40 -4 40 -10
0 -6 -47 -10 -120 -10 -133 0 -124 -5 -120 70 1 19 7 38 13 42 7 4 8 8 2 9
-20 2 -80 -2 -97 -7 -12 -4 -18 0 -18 10 0 9 -8 16 -19 16 -31 0 -34 18 -4 23
26 4 26 4 -4 6 -18 0 -33 -3 -33 -9 0 -6 -9 -6 -22 -1 -13 5 -22 16 -22 25 1
12 -4 14 -22 10 -22 -6 -24 -3 -25 37 -1 24 -3 35 -6 24 -10 -45 -17 -50 -23
-15 l-7 35 -2 -38 c-1 -45 -21 -41 -21 4 0 27 -2 29 -40 29 -29 0 -42 -5 -50
-19z m183 -138 c-7 -2 -19 -2 -25 0 -7 3 -2 5 12 5 14 0 19 -2 13 -5z m104
-35 c-3 -7 -5 -2 -5 12 0 14 2 19 5 13 2 -7 2 -19 0 -25z m433 -8 l0 -40 -40
0 -40 0 0 40 0 40 40 0 40 0 0 -40z m208 23 c-10 -2 -26 -2 -35 0 -10 3 -2 5
17 5 19 0 27 -2 18 -5z m-623 -65 c6 -4 2 -8 -7 -8 -10 0 -18 7 -18 17 0 9 3
12 8 7 4 -5 12 -12 17 -16z m2062 -30 c-3 -7 -5 -2 -5 12 0 14 2 19 5 13 2 -7
2 -19 0 -25z m-2087 -18 c0 -5 -7 -10 -15 -10 -8 0 -15 5 -15 10 0 6 7 10 15
10 8 0 15 -4 15 -10z m360 0 c0 -6 -33 -9 -82 -8 -71 1 -77 2 -38 8 70 11 120
11 120 0z m-257 -7 c-13 -2 -33 -2 -45 0 -13 2 -3 4 22 4 25 0 35 -2 23 -4z
m-1040 -60 c-13 -2 -33 -2 -45 0 -13 2 -3 4 22 4 25 0 35 -2 23 -4z m-2208
-13 c3 -5 1 -10 -4 -10 -6 0 -11 5 -11 10 0 6 2 10 4 10 3 0 8 -4 11 -10z
m5105 0 c0 -5 -9 -10 -19 -10 -11 0 -23 5 -26 10 -4 6 5 10 19 10 14 0 26 -4
26 -10z m-677 -17 c-7 -2 -21 -2 -30 0 -10 3 -4 5 12 5 17 0 24 -2 18 -5z
m-3773 -53 c0 -22 -4 -40 -10 -40 -5 0 -10 18 -10 40 0 22 5 40 10 40 6 0 10
-18 10 -40z m17 -22 c-2 -13 -4 -3 -4 22 0 25 2 35 4 23 2 -13 2 -33 0 -45z
m73 22 c0 -22 -4 -40 -10 -40 -5 0 -10 18 -10 40 0 22 5 40 10 40 6 0 10 -18
10 -40z m27 -22 c-2 -13 -4 -3 -4 22 0 25 2 35 4 23 2 -13 2 -33 0 -45z m-476
-55 c4 -22 2 -33 -6 -37 -23 -8 -480 -6 -493 2 -7 5 -12 15 -10 22 2 7 -5 14
-15 15 -32 6 -32 15 -1 16 16 0 38 4 49 9 11 4 121 7 245 7 l224 -2 7 -32z
m1306 -2 c4 -41 13 -54 14 -20 0 21 1 22 8 5 7 -17 17 -19 87 -19 98 1 116 -7
112 -50 l-3 -32 -480 -2 c-311 -2 -475 1 -465 7 10 6 11 10 3 10 -7 0 -13 11
-13 25 0 23 4 25 40 25 l40 0 0 45 0 45 327 -3 327 -2 3 -34z m1274 27 c1 -7
1 -17 0 -21 -1 -4 6 -10 14 -13 21 -8 19 -30 -2 -31 -26 -1 -332 -4 -370 -3
-32 0 -33 2 -33 40 l0 40 195 0 c149 0 195 -3 196 -12z m164 -23 c-2 -50 -15
-56 -15 -7 0 23 4 42 8 42 4 0 7 -16 7 -35z m465 20 c0 -11 -11 -15 -40 -15
-29 0 -40 4 -40 15 0 11 11 15 40 15 29 0 40 -4 40 -15z m80 -25 c0 -29 -4
-40 -15 -40 -11 0 -15 11 -15 40 0 29 4 40 15 40 11 0 15 -11 15 -40z m910 30
c25 -4 50 -5 55 -1 6 4 24 7 40 7 26 -1 30 -5 30 -31 l0 -30 -238 0 c-130 0
-237 -3 -237 -7 0 -5 -10 -8 -21 -8 -12 0 -28 -8 -35 -17 -13 -17 -13 -17 -14
0 0 14 -9 17 -45 17 l-45 0 0 -40 c0 -36 -2 -40 -25 -40 -22 0 -25 -4 -25 -40
0 -29 -4 -40 -15 -40 -11 0 -15 -11 -15 -40 0 -22 0 -43 0 -47 -1 -5 37 -13
82 -19 46 -6 79 -12 73 -13 -29 -6 48 -22 100 -21 33 1 79 1 103 1 l42 -1 0
-88 0 -88 -27 2 c-24 0 -29 6 -33 34 -7 49 -28 50 -36 1 -6 -35 -10 -41 -30
-41 -18 0 -24 6 -24 23 -1 52 1 52 -284 54 -145 1 -292 -1 -327 -5 -59 -7 -64
-9 -64 -32 0 -21 -5 -26 -33 -28 -31 -3 -32 -2 -27 27 5 30 4 31 -29 31 -55 0
-66 8 -66 49 0 39 29 81 55 81 7 0 20 3 29 6 11 4 16 1 16 -10 0 -12 10 -16
40 -16 29 0 40 4 40 15 0 11 11 15 40 15 25 0 40 5 40 13 0 7 15 12 40 12 22
0 40 -4 40 -8 0 -4 21 -7 48 -5 l47 3 6 50 6 50 1 -46 c1 -29 7 -46 15 -46 8
0 11 14 8 44 l-3 43 56 0 56 0 0 120 0 120 273 0 c149 -1 292 -5 317 -10z
m550 -10 l65 -7 -52 -2 c-28 0 -55 -5 -58 -11 -3 -5 0 -11 7 -11 33 -3 -85
-18 -149 -18 l-73 -1 0 29 c0 26 4 30 33 34 32 5 103 1 227 -13z m-5452 0 c57
0 72 -3 72 -15 0 -17 -31 -18 -117 -6 -36 5 -53 4 -53 -3 0 -7 17 -10 45 -8
27 3 45 0 45 -6 0 -6 19 -12 43 -14 23 -2 -8 -3 -70 -3 l-111 0 -4 28 c-6 35
0 40 42 33 19 -3 68 -6 108 -6z m1272 0 c0 -5 -10 -10 -22 -10 -19 0 -20 2 -8
10 19 13 30 13 30 0z m1434 2 c3 -5 -13 -9 -35 -10 -22 -2 -39 2 -39 8 0 12
66 14 74 2z m3126 -2 c0 -5 -9 -10 -21 -10 -11 0 -17 5 -14 10 3 6 13 10 21
10 8 0 14 -4 14 -10z m-4909 -17 c8 -8 3 -16 -16 -29 -18 -12 -29 -14 -33 -7
-4 6 -21 13 -37 16 -29 4 -29 4 5 6 l35 3 -40 13 -40 14 58 -3 c32 -1 63 -8
68 -13z m1677 10 c-10 -2 -26 -2 -35 0 -10 3 -2 5 17 5 19 0 27 -2 18 -5z
m-418 -29 c0 -2 -7 -4 -15 -4 -8 0 -15 4 -15 10 0 5 7 7 15 4 8 -4 15 -8 15
-10z m370 6 c0 -5 -8 -10 -17 -10 -15 0 -16 2 -3 10 19 12 20 12 20 0z m160
-10 c0 -16 -7 -20 -34 -20 -19 0 -41 -7 -50 -15 -8 -8 -21 -15 -28 -15 -8 1
-4 8 10 19 12 11 22 26 22 35 0 12 10 16 40 16 33 0 40 -3 40 -20z m-2545 0
c3 -5 1 -10 -4 -10 -6 0 -11 5 -11 10 0 6 2 10 4 10 3 0 8 -4 11 -10z m1055 0
c-19 -13 -30 -13 -30 0 0 6 10 10 23 10 18 0 19 -2 7 -10z m4370 -5 c0 -17
-11 -18 -99 -9 -87 10 -76 24 19 24 64 0 80 -3 80 -15z m-447 -12 c35 -5 37
-7 37 -43 l0 -39 133 -5 c72 -3 144 -6 159 -8 36 -4 48 -18 15 -18 -19 0 -26
-6 -29 -22 -3 -21 -10 -24 -92 -31 -81 -8 -91 -7 -103 9 -18 25 -53 29 -54 6
0 -14 -2 -14 -9 3 -5 11 -9 14 -9 8 -1 -9 -23 -13 -76 -13 -64 0 -75 2 -76 18
-1 9 -2 24 -3 32 -1 10 -14 16 -38 18 -40 3 -55 25 -43 62 5 14 15 20 38 20
18 0 39 5 47 10 8 6 26 8 40 4 14 -3 42 -8 63 -11z m-2596 1 c-3 -3 -12 -4
-19 -1 -8 3 -5 6 6 6 11 1 17 -2 13 -5z m1153 -18 c0 -8 -4 -18 -10 -21 -5 -3
-10 3 -10 14 0 12 5 21 10 21 6 0 10 -6 10 -14z m30 -8 c0 -13 -5 -30 -10 -38
-7 -11 -10 -5 -10 23 0 20 5 37 10 37 6 0 10 -10 10 -22z m260 -28 c0 -28 -2
-30 -40 -30 -38 0 -40 2 -40 30 0 28 2 30 40 30 38 0 40 -2 40 -30z m-200 -5
c0 -14 -4 -25 -10 -25 -11 0 -14 33 -3 43 11 11 13 8 13 -18z m710 -16 c0 -5
-4 -9 -10 -9 -5 0 -10 7 -10 16 0 8 5 12 10 9 6 -3 10 -10 10 -16z m-1710 1
c0 -5 -7 -10 -15 -10 -8 0 -15 5 -15 10 0 6 7 10 15 10 8 0 15 -4 15 -10z
m-2308 -47 l3 -38 58 -3 57 -3 0 -35 c0 -22 6 -37 15 -40 8 -4 15 -11 15 -18
0 -6 12 -20 27 -30 30 -22 117 -23 143 -2 19 15 58 15 68 -1 8 -13 289 -26
296 -15 2 4 -12 8 -32 9 -174 10 -343 43 -222 43 22 0 40 -4 40 -9 0 -13 162
-25 207 -15 l38 8 -40 6 -40 7 38 2 37 1 0 45 0 45 119 0 c69 0 122 -4 126
-10 3 -5 19 -10 35 -10 16 0 32 5 35 10 4 6 87 10 216 10 l209 0 1 -22 c0 -20
1 -21 8 -5 11 30 23 25 26 -11 2 -25 -1 -32 -14 -31 -9 1 -27 -3 -41 -8 -13
-6 -38 -9 -55 -7 -38 3 -166 6 -267 5 -71 -1 -78 -3 -78 -21 0 -27 -18 -25
-23 3 -2 12 -5 3 -6 -20 -1 -36 -4 -43 -21 -43 -17 0 -20 -7 -20 -37 0 -21 7
-46 15 -57 11 -14 11 -22 2 -37 -17 -28 -27 -23 -27 14 l0 32 -439 3 -439 3
-7 -41 -7 -41 -81 3 c-81 3 -82 3 -85 31 -2 15 -9 27 -18 27 -10 0 -14 13 -14
50 0 28 -4 50 -10 50 -5 0 -10 17 -10 38 l0 37 -47 0 -48 0 0 45 c0 45 0 45
39 48 37 3 38 4 34 38 l-4 34 92 0 93 0 3 -37z m388 -5 l0 -43 -68 2 c-37 1
-91 2 -119 2 l-53 1 0 40 0 40 120 0 120 0 0 -42z m1391 29 c-1 -12 -15 -9
-19 4 -3 6 1 10 8 8 6 -3 11 -8 11 -12z m369 -3 c0 -14 55 -41 73 -36 4 1 7
-5 7 -13 0 -10 -11 -15 -35 -15 -19 0 -38 -1 -42 -2 -5 -2 -11 16 -14 40 -3
23 -2 42 3 42 4 0 8 -7 8 -16z m786 5 c2 -4 0 -18 -5 -31 -9 -21 -10 -21 -11
-3 -1 19 -2 18 -10 -2 -5 -13 -17 -24 -27 -25 -18 -1 155 -18 192 -19 16 0 17
-2 5 -9 -8 -5 -23 -10 -32 -10 -10 0 -18 -4 -18 -10 0 -5 7 -10 15 -10 8 0 15
-4 15 -10 0 -5 -7 -10 -15 -10 -9 0 -12 -6 -8 -16 4 -12 8 -13 14 -3 5 8 9 -2
11 -27 l3 -39 56 -3 c54 -3 57 -5 61 -31 6 -41 0 -49 -32 -45 -16 2 -32 -1
-35 -6 -3 -6 -24 -10 -46 -10 -53 0 -50 -20 4 -22 l42 -1 -42 -4 c-24 -2 -43
-8 -43 -14 0 -5 19 -10 43 -10 30 -2 18 -5 -40 -12 -78 -9 -82 -11 -86 -36 -2
-14 -3 -7 -1 17 l4 42 -40 0 c-33 0 -40 3 -40 20 0 16 -7 20 -34 20 -55 0 -85
-15 -79 -39 5 -22 -3 -26 -31 -15 -12 5 -14 10 -6 19 24 29 -31 32 -689 36
-364 3 -374 3 -382 -16 -5 -14 -8 -15 -9 -5 0 9 -6 6 -15 -10 -12 -22 -14 -23
-20 -7 -4 9 -5 24 -2 32 4 8 2 17 -3 20 -8 5 -8 33 -1 77 0 4 12 5 25 2 14 -2
28 0 31 6 4 6 74 11 173 12 l167 2 -162 3 c-237 5 -210 23 33 23 115 0 203 4
215 10 13 7 19 7 19 0 0 -5 -8 -10 -17 -10 -27 0 0 -21 28 -22 13 -1 30 -6 37
-11 9 -7 12 -2 12 21 0 17 3 32 8 35 4 2 34 -2 67 -9 l60 -13 -53 3 c-57 3
-81 -9 -32 -16 44 -7 266 -10 260 -5 -3 3 -38 7 -77 9 -40 3 -76 8 -80 11 -15
15 13 22 85 21 42 0 58 1 35 3 l-43 4 0 55 0 54 80 0 80 0 0 -55 c0 -36 4 -55
12 -55 6 0 3 -7 -8 -15 -19 -14 -19 -14 1 -16 35 -3 40 -5 63 -18 13 -7 30
-10 38 -7 8 3 14 1 14 -4 0 -6 10 0 23 13 12 12 21 30 21 40 -1 15 6 18 40 17
110 -5 116 -3 116 32 l0 31 -119 -6 c-133 -7 -136 -6 -143 56 l-4 39 164 -3
c90 -2 165 -6 168 -10z m1452 -29 l-1 -39 -156 -3 c-86 -2 -162 -1 -168 1 -8
2 -13 19 -13 42 l0 39 170 0 170 0 -2 -40z m-5131 -17 c-4 -17 -4 -17 -12 0
-4 9 -4 25 0 35 8 16 8 16 12 0 3 -10 3 -26 0 -35z m3918 36 c12 0 3 -6 -20
-14 -27 -9 -33 -13 -18 -14 24 -1 43 -21 19 -21 -8 0 -21 -3 -30 -6 -13 -5
-16 1 -16 31 0 34 2 37 23 31 12 -3 31 -6 42 -7z m255 1 c0 -5 -9 -10 -20 -10
-11 0 -20 5 -20 10 0 6 9 10 20 10 11 0 20 -4 20 -10z m-1650 -30 c0 -5 -2
-10 -4 -10 -3 0 -8 5 -11 10 -3 6 -1 10 4 10 6 0 11 -4 11 -10z m40 0 c0 -5
-4 -10 -10 -10 -5 0 -10 5 -10 10 0 6 5 10 10 10 6 0 10 -4 10 -10z m1610 0
c0 -5 -19 -10 -42 -9 -37 1 -39 2 -18 9 36 12 60 12 60 0z m-17 -27 c-13 -2
-33 -2 -45 0 -13 2 -3 4 22 4 25 0 35 -2 23 -4z m-1156 -65 c-2 -13 -4 -3 -4
22 0 25 2 35 4 23 2 -13 2 -33 0 -45z m40 0 c-2 -13 -4 -3 -4 22 0 25 2 35 4
23 2 -13 2 -33 0 -45z m1263 22 c0 -33 -3 -40 -20 -40 -17 0 -20 7 -20 40 0
33 3 40 20 40 17 0 20 -7 20 -40z m-470 -20 c0 -5 -4 -10 -10 -10 -5 0 -10 5
-10 10 0 6 5 10 10 10 6 0 10 -4 10 -10z m-1217 -27 c-24 -2 -62 -2 -85 0 -24
2 -5 4 42 4 47 0 66 -2 43 -4z m1627 -5 c0 -4 -35 -7 -77 -6 -65 1 -70 2 -33
7 64 9 110 8 110 -1z m-2887 -5 c-13 -2 -33 -2 -45 0 -13 2 -3 4 22 4 25 0 35
-2 23 -4z m3777 -56 c0 -8 10 -19 23 -25 l22 -11 -22 0 c-14 -1 -23 -7 -23
-16 0 -11 11 -15 39 -15 43 0 51 -10 51 -66 0 -34 -1 -34 -44 -34 -44 0 -44 0
-51 40 -7 39 -8 40 -46 40 l-40 0 3 42 c2 35 7 43 28 49 41 11 60 10 60 -4z
m-1169 -87 c5 0 10 19 10 43 l2 42 7 -50 c10 -67 -11 -106 -38 -72 -6 7 -7 35
-3 67 l6 55 3 -42 c2 -24 7 -43 13 -43z m-3530 -80 c5 0 9 -4 9 -10 0 -5 -7
-10 -15 -10 -12 0 -15 12 -13 53 1 50 2 50 5 10 2 -24 8 -43 14 -43z m154 40
c0 -35 0 -35 -49 -38 -55 -4 -61 0 -71 46 l-7 33 64 -3 63 -3 0 -35z m4662 3
c-3 -10 -5 -4 -5 12 0 17 2 24 5 18 2 -7 2 -21 0 -30z m30 -25 c-2 -13 -4 -3
-4 22 0 25 2 35 4 23 2 -13 2 -33 0 -45z m-1864 25 c-24 -2 -62 -2 -85 0 -24
2 -5 4 42 4 47 0 66 -2 43 -4z m160 0 c-7 -2 -21 -2 -30 0 -10 3 -4 5 12 5 17
0 24 -2 18 -5z m-168 -33 c8 -12 -101 -12 -130 0 -14 6 2 9 52 9 39 1 75 -3
78 -9z m188 3 c-13 -2 -33 -2 -45 0 -13 2 -3 4 22 4 25 0 35 -2 23 -4z m-1285
-13 c21 0 23 -4 20 -37 l-3 -38 -77 -3 -78 -3 0 39 c0 21 3 42 8 46 4 5 30 5
57 2 28 -3 60 -6 73 -6z m662 -69 l0 -68 69 -7 c76 -8 106 -3 168 25 51 23 54
23 47 5 -6 -16 12 -23 71 -25 22 -1 42 -6 43 -11 4 -12 152 -13 171 -1 7 5 10
14 7 20 -5 7 5 11 28 11 27 0 36 -4 36 -17 0 -14 2 -14 21 3 16 15 24 16 39 6
14 -9 20 -8 23 1 3 8 11 4 24 -10 30 -34 43 -28 43 17 l0 40 55 0 c45 0 55 -3
56 -17 1 -17 2 -17 6 0 7 28 23 20 23 -12 0 -34 15 -49 24 -24 5 12 9 14 18 5
15 -15 68 -16 68 -2 0 6 18 10 41 10 24 0 38 -4 34 -10 -3 -6 4 -10 18 -10 13
0 52 -3 86 -6 52 -6 61 -5 61 10 0 12 10 16 39 16 22 0 42 -4 45 -9 3 -5 26
-7 51 -5 32 3 45 1 45 -8 0 -9 3 -8 10 2 9 13 10 13 10 0 0 -13 1 -13 10 0 9
13 10 13 10 0 0 -13 1 -13 10 0 7 11 10 11 10 2 0 -10 18 -13 68 -12 37 0 88
-2 115 -6 l47 -7 0 42 0 42 363 -3 362 -3 3 -46 3 -46 -181 3 c-99 2 -261 6
-360 8 l-180 3 0 -58 0 -59 -36 0 c-31 0 -35 2 -24 15 10 12 10 15 -4 15 -10
0 -16 -9 -16 -25 0 -22 3 -25 24 -19 14 3 32 1 42 -4 13 -7 -7 -12 -78 -17
-96 -7 -134 -1 -107 16 12 8 11 11 -1 19 -10 6 -11 10 -2 10 6 0 12 5 12 10 0
7 -76 10 -225 9 l-225 -2 0 -33 c0 -30 3 -33 40 -39 38 -6 40 -9 40 -41 l0
-34 -241 0 -241 0 7 74 6 73 -77 7 c-42 4 -80 3 -85 -1 -4 -4 -8 -26 -9 -48
-5 -73 -4 -75 40 -75 29 0 40 -4 40 -15 0 -11 -11 -15 -40 -15 -25 0 -40 5
-40 13 0 8 -4 7 -10 -3 -9 -13 -11 -13 -20 0 -6 10 -10 11 -10 3 0 -7 -7 -13
-15 -13 -11 0 -15 11 -15 41 l0 42 -45 -6 c-42 -6 -45 -5 -52 21 -4 15 -6 33
-5 39 2 10 -18 12 -75 11 -43 0 -221 3 -395 7 l-318 8 0 -40 0 -40 -97 -6
c-103 -6 -137 -13 -127 -28 3 -5 0 -9 -5 -9 -6 0 -11 -7 -11 -15 0 -11 -11
-15 -42 -13 -38 1 -39 2 -10 5 18 2 30 9 27 14 -10 16 -54 10 -75 -11 -27 -27
-60 -26 -60 1 0 12 8 27 17 34 10 7 20 33 24 61 l6 49 2 -42 c0 -24 6 -43 12
-43 7 0 10 15 7 40 -2 22 0 40 4 40 5 0 8 17 8 39 l0 39 282 1 c155 1 284 4
286 6 3 2 5 16 5 30 0 31 16 34 18 3 l2 -23 4 23 c2 12 9 22 14 22 5 0 9 -10
10 -22 1 -19 2 -18 10 7 5 17 9 44 8 60 -2 53 -1 55 41 55 l40 0 0 -69z m697
29 c-3 -27 -1 -40 6 -40 7 0 3 -7 -7 -15 -23 -18 -36 -5 -35 35 l1 25 8 -25
c7 -21 8 -19 9 18 1 24 6 42 12 42 8 0 10 -14 6 -40z m303 20 c0 -11 -4 -20
-10 -20 -5 0 -10 9 -10 20 0 11 5 20 10 20 6 0 10 -9 10 -20z m55 -72 c17 -7
16 -8 -5 -3 -14 2 -28 5 -31 5 -3 0 -4 12 -1 28 6 27 6 27 12 3 3 -13 14 -28
25 -33z m-455 -8 c0 -5 -4 -10 -10 -10 -5 0 -10 5 -10 10 0 6 5 10 10 10 6 0
10 -4 10 -10z m2690 0 c0 -5 -20 -10 -45 -10 -25 0 -45 -4 -45 -10 0 -9 75
-15 123 -11 9 1 17 -2 17 -7 0 -6 -65 -13 -150 -17 l-150 -8 0 -32 c0 -38 -8
-42 -72 -40 l-46 1 21 -27 c17 -21 31 -28 60 -28 26 -1 37 -5 37 -16 0 -11
-11 -15 -40 -15 l-40 0 0 -52 c0 -31 -4 -48 -8 -40 -5 7 -18 14 -31 17 -13 2
-19 0 -15 -6 9 -15 -5 -61 -16 -54 -6 3 -10 -1 -10 -9 0 -12 11 -16 46 -16
l45 0 -3 -41 -3 -42 -47 1 c-27 0 -140 1 -253 1 l-205 1 -2 43 -1 42 -6 -45
-7 -45 -14 29 -15 30 -6 -30 c-4 -17 -7 5 -8 56 l-1 86 95 -1 95 0 0 38 c0 33
3 37 25 37 22 0 25 -4 25 -39 0 -39 0 -39 43 -42 l42 -4 -4 43 -3 42 39 0 c39
0 39 1 41 40 2 23 -2 40 -8 40 -5 0 -10 18 -10 40 0 22 -4 40 -10 40 -5 0 -10
-11 -10 -24 0 -46 -28 -81 -31 -38 -1 16 -2 16 -6 0 -3 -13 -15 -18 -44 -18
-39 0 -39 0 -39 40 l0 40 -45 0 c-35 0 -43 3 -39 15 5 12 24 15 85 15 46 0 79
4 79 10 0 6 18 10 40 10 27 0 40 -4 40 -14 0 -11 28 -13 158 -8 86 2 159 8
162 12 3 4 41 12 85 17 44 6 81 11 83 12 1 0 2 -3 2 -9z m45 0 c3 -5 1 -10 -4
-10 -6 0 -11 5 -11 10 0 6 2 10 4 10 3 0 8 -4 11 -10z m-6295 -16 c0 -8 -5
-12 -10 -9 -6 4 -8 11 -5 16 9 14 15 11 15 -7z m5477 -36 c-3 -8 -6 -5 -6 6
-1 11 2 17 5 13 3 -3 4 -12 1 -19z m-3360 -70 c-2 -13 -4 -3 -4 22 0 25 2 35
4 23 2 -13 2 -33 0 -45z m30 0 c-2 -13 -4 -3 -4 22 0 25 2 35 4 23 2 -13 2
-33 0 -45z m4163 22 c0 -38 -2 -40 -30 -40 -28 0 -30 2 -30 40 0 38 2 40 30
40 28 0 30 -2 30 -40z m-4120 -5 c0 -16 -6 -25 -15 -25 -9 0 -15 9 -15 25 0
16 6 25 15 25 9 0 15 -9 15 -25z m3158 -12 c-10 -2 -26 -2 -35 0 -10 3 -2 5
17 5 19 0 27 -2 18 -5z m-5081 -19 c-3 -3 -12 -4 -19 -1 -8 3 -5 6 6 6 11 1
17 -2 13 -5z m927 -3 l88 -1 -6 -33 c-7 -39 18 -68 50 -56 27 11 34 10 34 -1
0 -5 -11 -10 -24 -10 -14 0 -28 -4 -31 -10 -10 -15 -23 -12 -27 7 -3 15 -19
17 -161 14 l-157 -2 0 45 0 45 53 3 c28 2 61 2 72 1 11 -1 60 -2 109 -2z m983
-63 c-2 -13 -4 -3 -4 22 0 25 2 35 4 23 2 -13 2 -33 0 -45z m3073 42 c0 -10 4
-21 8 -24 5 -3 8 5 8 17 -1 20 5 22 52 25 l52 3 0 -43 0 -43 -50 0 c-27 0 -50
3 -50 8 0 4 -4 7 -8 7 -5 0 -7 -13 -4 -30 2 -16 1 -38 -4 -47 -6 -14 -9 -7
-14 27 l-7 45 -1 -42 c-2 -54 -22 -57 -22 -3 l0 40 -45 0 -45 0 0 -40 0 -40
-55 0 -55 0 0 39 c0 30 4 40 20 44 15 4 20 14 20 40 l0 34 100 1 c91 0 100 -1
100 -18z m180 -20 c0 -22 -4 -40 -10 -40 -5 0 -10 18 -10 40 0 22 5 40 10 40
6 0 10 -18 10 -40z m597 -22 c-2 -13 -4 -3 -4 22 0 25 2 35 4 23 2 -13 2 -33
0 -45z m-1127 42 c0 -5 -4 -10 -10 -10 -5 0 -10 5 -10 10 0 6 5 10 10 10 6 0
10 -4 10 -10z m-2837 -17 c-13 -2 -33 -2 -45 0 -13 2 -3 4 22 4 25 0 35 -2 23
-4z m924 1 c-3 -3 -12 -4 -19 -1 -8 3 -5 6 6 6 11 1 17 -2 13 -5z m-924 -31
c-13 -2 -33 -2 -45 0 -13 2 -3 4 22 4 25 0 35 -2 23 -4z m700 -20 c-7 -2 -21
-2 -30 0 -10 3 -4 5 12 5 17 0 24 -2 18 -5z m-1195 -30 c-10 -2 -26 -2 -35 0
-10 3 -2 5 17 5 19 0 27 -2 18 -5z m1172 -17 c0 -3 -4 -8 -10 -11 -5 -3 -10
-1 -10 4 0 6 5 11 10 11 6 0 10 -2 10 -4z m-1460 -46 c0 -5 -4 -10 -9 -10 -6
0 -13 5 -16 10 -3 6 1 10 9 10 9 0 16 -4 16 -10z m143 3 c-13 -2 -33 -2 -45 0
-13 2 -3 4 22 4 25 0 35 -2 23 -4z m1127 -3 c-52 -4 -99 -3 -104 2 -6 4 37 7
95 6 l104 -1 -95 -7z m360 0 c0 -5 -5 -10 -11 -10 -5 0 -7 5 -4 10 3 6 8 10
11 10 2 0 4 -4 4 -10z m30 0 c0 -5 -4 -10 -10 -10 -5 0 -10 5 -10 10 0 6 5 10
10 10 6 0 10 -4 10 -10z m199 4 c107 -12 65 -24 -58 -17 l-119 6 -5 -29 c-3
-25 -4 -24 -6 9 l-1 37 64 0 c34 0 91 -3 125 -6z m1644 -1 c-13 -2 -33 -2 -45
0 -13 2 -3 4 22 4 25 0 35 -2 23 -4z m380 -10 c-7 -2 -21 -2 -30 0 -10 3 -4 5
12 5 17 0 24 -2 18 -5z m-968 -12 c3 -5 1 -12 -5 -16 -5 -3 -10 1 -10 9 0 18
6 21 15 7z m35 -6 c0 -8 -4 -15 -10 -15 -5 0 -10 7 -10 15 0 8 5 15 10 15 6 0
10 -7 10 -15z m-1697 -2 c-7 -2 -21 -2 -30 0 -10 3 -4 5 12 5 17 0 24 -2 18
-5z m107 -3 c0 -5 -18 -10 -40 -10 -22 0 -40 5 -40 10 0 6 18 10 40 10 22 0
40 -4 40 -10z m271 -7 c1 -17 2 -17 6 0 6 23 19 22 19 -3 0 -14 -7 -20 -23
-20 -16 0 -23 6 -23 20 0 25 20 27 21 3z m2286 -19 c-3 -3 -12 -4 -19 -1 -8 3
-5 6 6 6 11 1 17 -2 13 -5z m-2987 -44 c0 -22 5 -40 10 -40 14 0 13 -62 -1
-97 l-12 -28 -6 25 -7 25 -9 -25 c-7 -22 -9 -20 -12 20 -6 85 -13 110 -31 111
-16 1 -15 2 1 6 9 2 17 13 17 24 0 14 7 19 25 19 23 0 25 -4 25 -40z m3747 3
c-3 -10 -5 -4 -5 12 0 17 2 24 5 18 2 -7 2 -21 0 -30z m-5397 17 c0 -5 -18
-10 -40 -10 -22 0 -40 5 -40 10 0 6 18 10 40 10 22 0 40 -4 40 -10z m2310 0
c0 -5 -2 -10 -4 -10 -3 0 -8 5 -11 10 -3 6 -1 10 4 10 6 0 11 -4 11 -10z
m1207 -16 c-2 -2 -12 -1 -22 3 -18 6 -18 7 1 13 17 7 33 -5 21 -16z m13 -24
c8 -5 12 -12 8 -15 -10 -10 -49 5 -43 16 8 11 16 11 35 -1z m37 -12 c-3 -8 -6
-5 -6 6 -1 11 2 17 5 13 3 -3 4 -12 1 -19z m380 6 c-3 -3 -12 -4 -19 -1 -8 3
-5 6 6 6 11 1 17 -2 13 -5z m-1470 -20 c-3 -3 -12 -4 -19 -1 -8 3 -5 6 6 6 11
1 17 -2 13 -5z m658 -36 c0 -27 4 -31 27 -32 37 -2 47 -15 41 -53 l-5 -33 -78
0 -78 0 -3 43 c-2 23 -3 56 -1 74 3 30 6 32 45 35 52 4 52 3 52 -34z m1393 25
c-10 -2 -26 -2 -35 0 -10 3 -2 5 17 5 19 0 27 -2 18 -5z m-2928 -33 c0 -20 -5
-30 -15 -30 -10 0 -15 10 -15 30 0 20 5 30 15 30 10 0 15 -10 15 -30z m267 14
c-3 -3 -12 -4 -19 -1 -8 3 -5 6 6 6 11 1 17 -2 13 -5z m613 -14 c0 -5 -5 -10
-11 -10 -5 0 -7 5 -4 10 3 6 8 10 11 10 2 0 4 -4 4 -10z m-140 -15 c10 -12 10
-15 -4 -15 -9 0 -16 7 -16 15 0 8 2 15 4 15 2 0 9 -7 16 -15z m1164 0 c4 -10
-1 -15 -14 -15 -13 0 -18 5 -14 15 4 8 10 15 14 15 4 0 10 -7 14 -15z m-1778
-24 c-10 -16 -56 -20 -56 -5 0 9 11 14 31 14 16 0 28 -4 25 -9z m2691 -53 c-2
-13 -4 -3 -4 22 0 25 2 35 4 23 2 -13 2 -33 0 -45z m970 15 c-3 -10 -5 -2 -5
17 0 19 2 27 5 18 2 -10 2 -26 0 -35z m76 22 c-3 -9 -8 -14 -10 -11 -3 3 -2 9
2 15 9 16 15 13 8 -4z m-26 -17 c-3 -8 -6 -5 -6 6 -1 11 2 17 5 13 3 -3 4 -12
1 -19z m-3482 -47 c37 -6 40 -9 37 -36 -2 -17 -6 -32 -9 -35 -2 -3 -162 -6
-354 -8 -192 -2 -347 -7 -345 -10 2 -4 -34 -6 -80 -4 l-84 3 0 45 c0 45 3 48
47 45 11 -1 23 1 26 6 6 9 704 4 762 -6z m-1092 -68 c-13 -2 -33 -2 -45 0 -13
2 -3 4 22 4 25 0 35 -2 23 -4z m2142 -13 c-3 -5 -12 -10 -20 -10 -8 0 -17 5
-20 10 -4 6 5 10 20 10 15 0 24 -4 20 -10z m938 3 c-35 -2 -91 -2 -125 0 -35
2 -7 3 62 3 69 0 97 -1 63 -3z m-2760 -30 c-13 -2 -33 -2 -45 0 -13 2 -3 4 22
4 25 0 35 -2 23 -4z m2960 0 c-13 -2 -33 -2 -45 0 -13 2 -3 4 22 4 25 0 35 -2
23 -4z m-160 -10 c-13 -2 -33 -2 -45 0 -13 2 -3 4 22 4 25 0 35 -2 23 -4z
m327 -3 c0 -5 -16 -10 -35 -10 -19 0 -35 5 -35 10 0 6 16 10 35 10 19 0 35 -4
35 -10z m-1240 -66 c0 -24 -4 -44 -10 -44 -5 0 -10 6 -11 13 0 6 -3 32 -6 57
-5 40 -4 43 11 31 10 -9 16 -29 16 -57z m-3027 49 c-7 -2 -21 -2 -30 0 -10 3
-4 5 12 5 17 0 24 -2 18 -5z m1110 0 c-7 -2 -19 -2 -25 0 -7 3 -2 5 12 5 14 0
19 -2 13 -5z m766 -40 c0 -16 -3 -22 -6 -15 -6 15 -30 16 -35 2 -2 -6 -28 -12
-58 -14 -30 -2 -38 -1 -17 1 52 6 46 23 -8 23 -42 0 -54 7 -38 23 3 4 42 7 85
7 l78 0 -1 -27z m2271 5 c0 -19 -2 -20 -10 -8 -13 19 -13 30 0 30 6 0 10 -10
10 -22z m47 0 c-3 -8 -6 -5 -6 6 -1 11 2 17 5 13 3 -3 4 -12 1 -19z m80 6 c-3
-3 -12 -4 -19 -1 -8 3 -5 6 6 6 11 1 17 -2 13 -5z m-1309 -52 c2 -7 -6 -12
-17 -12 -21 0 -27 11 -14 24 9 9 26 2 31 -12z m-126 -59 l1 -38 4 38 c4 35 6
37 39 37 32 0 34 -2 34 -35 0 -35 0 -35 45 -35 43 0 45 -1 45 -29 0 -51 -9
-61 -51 -61 -34 0 -41 -4 -51 -27 l-11 -28 -9 33 c-5 17 -13 32 -19 32 -5 0
-13 -15 -16 -32 l-7 -33 -6 35 c-3 19 -4 39 -1 45 10 19 8 50 -3 57 -6 4 -21
8 -33 8 -20 0 -23 5 -23 35 0 32 2 35 30 35 28 0 30 -3 32 -37z m-1845 -39
c-3 -3 -12 -4 -19 -1 -8 3 -5 6 6 6 11 1 17 -2 13 -5z m1683 -29 c0 -34 1 -35
39 -35 l39 0 7 -93 c9 -121 6 -140 -25 -148 -16 -4 -19 -7 -7 -8 9 -1 17 -4
18 -8 0 -5 3 -24 5 -43 10 -71 19 -442 11 -447 -5 -3 -12 -16 -18 -30 -6 -18
-15 -24 -32 -21 -20 3 -22 9 -25 71 -3 61 -5 67 -25 67 -13 0 -17 3 -11 8 7 4
14 66 19 165 l7 157 -42 0 -41 0 3 48 3 47 38 -1 c36 -2 37 -1 37 35 0 35 -1
36 -37 36 -37 0 -38 1 -41 38 -3 37 -4 38 -40 35 -35 -3 -37 -5 -37 -38 -1
-32 -4 -35 -33 -38 -29 -3 -32 -6 -32 -37 0 -31 3 -34 33 -37 l32 -3 2 -125
c1 -69 -1 -140 -3 -157 l-5 -33 -79 0 -79 0 -7 35 c-5 30 -10 35 -34 35 -25 0
-29 4 -35 40 -6 37 -9 40 -40 40 -34 0 -45 16 -45 68 0 19 5 22 40 22 l40 0 0
75 0 75 40 0 40 0 1 43 c2 101 2 102 30 105 22 3 27 -2 36 -35 l10 -38 2 43
c1 25 6 43 14 43 6 1 23 2 37 3 21 1 26 7 28 33 3 34 8 36 125 41 36 2 37 1
37 -33z m1256 -45 c21 0 24 -5 24 -35 0 -34 -1 -35 -40 -35 l-40 0 0 41 c0 33
3 40 16 35 9 -3 27 -6 40 -6z m-2516 -50 c0 -11 -4 -20 -10 -20 -5 0 -10 9
-10 20 0 11 5 20 10 20 6 0 10 -9 10 -20z m-679 -7 c-19 -4 -21 -7 -10 -14 11
-7 8 -9 -9 -9 -13 0 -21 4 -17 9 3 5 -3 12 -12 14 -10 3 2 5 27 4 25 0 34 -2
21 -4z m3646 -160 c-3 -10 -5 -2 -5 17 0 19 2 27 5 18 2 -10 2 -26 0 -35z m30
-10 c-3 -10 -5 -4 -5 12 0 17 2 24 5 18 2 -7 2 -21 0 -30z m-4557 7 c0 -5 -5
-10 -11 -10 -5 0 -7 5 -4 10 3 6 8 10 11 10 2 0 4 -4 4 -10z m-6 -675 c5 0 11
-6 14 -14 3 -10 0 -12 -12 -8 -10 4 -16 1 -16 -8 0 -8 -7 -15 -15 -15 -9 0
-15 9 -15 23 0 28 9 39 24 29 6 -4 15 -7 20 -7z m473 9 c26 -4 32 -9 30 -27
-3 -28 -15 -37 -49 -37 -20 0 -28 5 -28 18 0 14 -2 14 -9 3 -5 -8 -19 -16 -30
-18 -17 -2 -21 2 -21 26 0 30 4 32 60 38 8 1 30 0 47 -3z m423 -32 c0 -37 -1
-39 -35 -40 -34 -1 -35 -1 -35 38 0 39 1 40 35 40 34 0 35 -1 35 -38z m-1134
19 c-4 -5 0 -12 6 -14 10 -4 10 -8 -1 -15 -11 -8 -10 -11 5 -15 29 -7 -175 -8
-246 0 -60 6 -61 6 -34 19 l29 12 -27 1 c-16 1 -28 6 -28 11 0 6 57 10 151 10
88 0 148 -4 145 -9z m454 -1 c0 -5 -4 -10 -10 -10 -5 0 -10 5 -10 10 0 6 5 10
10 10 6 0 10 -4 10 -10z m500 -81 c0 -15 -5 -19 -15 -15 -8 3 -15 1 -15 -4 0
-5 8 -10 18 -12 14 -3 13 -5 -5 -10 -21 -5 -23 -3 -23 28 0 27 4 34 20 34 14
0 20 -7 20 -21z m17 -11 c-3 -7 -5 -2 -5 12 0 14 2 19 5 13 2 -7 2 -19 0 -25z
m2015 9 c8 -40 10 -261 3 -279 -10 -25 -25 -12 -25 21 0 20 -6 30 -20 34 -26
7 -27 4 -35 -80 l-7 -72 78 -3 79 -3 5 -35 5 -35 78 -3 c79 -3 85 -6 91 -49 2
-14 17 -20 74 -27 40 -5 72 -13 72 -18 0 -4 15 -8 33 -8 24 0 28 -3 17 -10
-12 -8 -11 -10 8 -10 15 0 22 -6 22 -20 0 -16 7 -20 38 -20 41 0 68 -13 59
-27 -16 -25 15 -35 134 -43 68 -5 132 -10 141 -10 12 0 18 -10 20 -37 l3 -38
80 -5 80 -5 5 -35 5 -35 80 -5 80 -5 3 -32 c3 -27 8 -33 28 -34 13 -1 33 -3
44 -4 11 -1 34 -3 50 -4 28 -1 30 -3 30 -42 l0 -40 -192 2 c-106 1 -198 3
-204 6 -7 2 -9 14 -6 25 9 35 -23 48 -117 49 -126 2 -142 8 -144 56 0 7 -19
15 -41 18 -87 11 -94 12 -59 14 26 1 30 4 26 21 -3 11 -9 18 -13 15 -5 -3 -10
0 -12 6 -2 6 -53 16 -113 22 l-110 12 0 30 c0 29 -2 30 -63 39 -56 9 -63 12
-68 35 -3 14 -7 32 -10 39 -2 8 -28 12 -84 12 l-80 0 0 34 0 35 -81 7 -81 7 4
34 c4 35 2 36 -57 45 -14 2 -21 12 -23 36 -2 22 -9 32 -20 33 -12 0 -9 3 7 10
l24 9 -6 153 c-3 84 -2 159 2 166 5 8 17 11 30 6 12 -3 19 -11 16 -16 -4 -5 3
-9 14 -9 18 0 21 6 21 38 0 47 4 52 46 52 25 0 33 -5 36 -23z m-1772 -29 c0
-35 -2 -38 -29 -38 -26 0 -29 4 -33 35 -2 20 -3 37 -2 38 1 1 16 2 33 2 29 0
31 -2 31 -37z m1132 -24 l76 -7 6 -59 c6 -45 10 -57 19 -49 14 11 41 -1 43
-19 1 -5 2 -14 3 -20 0 -5 46 -9 105 -8 57 0 108 -2 115 -6 6 -4 11 -20 11
-36 0 -22 5 -29 23 -32 19 -3 22 -9 22 -48 l0 -45 -87 3 c-52 1 -98 9 -115 17
-19 10 -22 15 -10 15 19 0 24 35 6 46 -8 4 -9 0 -4 -15 4 -12 2 -21 -4 -21 -6
0 -11 6 -12 13 0 10 -2 10 -6 0 -8 -20 -22 -15 -35 12 -6 14 -19 25 -30 25
-23 0 -24 -17 0 -23 13 -4 11 -5 -5 -6 -17 -1 -23 5 -23 19 0 16 -7 20 -32 21
-27 1 -28 3 -9 6 19 4 21 7 10 14 -12 8 -12 10 1 18 23 15 10 19 -75 23 l-80
4 -3 42 c-3 41 -4 42 -38 42 -33 0 -34 1 -34 40 l0 40 43 0 c24 0 78 -3 119
-6z m-962 -33 c0 -25 -4 -29 -35 -33 -34 -4 -35 -3 -35 29 0 31 2 33 35 33 32
0 35 -3 35 -29z m1998 -173 l3 -38 75 0 c41 0 74 -4 74 -10 0 -5 13 -7 30 -3
25 4 30 2 31 -13 0 -16 2 -15 10 4 8 21 14 23 61 20 l53 -3 0 -35 c0 -31 3
-34 30 -35 28 0 30 -3 33 -42 3 -42 4 -43 38 -43 32 0 34 2 34 35 0 35 0 35
45 35 l45 0 0 -80 0 -80 35 0 c35 0 38 -3 38 -52 0 -10 4 -18 8 -18 5 0 9 -18
9 -40 l0 -41 -82 3 -83 3 -3 31 -3 32 -85 7 -84 7 0 33 0 33 -107 8 -108 9 -9
31 c-9 31 -11 32 -88 39 l-78 6 0 34 0 33 -82 8 c-46 4 -96 8 -113 8 -27 1
-30 4 -33 39 -3 35 -2 37 27 37 29 0 31 2 31 40 l0 41 123 -3 122 -3 3 -37z
m-1758 -73 c0 -45 0 -45 -32 -41 -30 3 -33 7 -36 39 -3 36 4 43 51 46 14 1 17
-7 17 -44z m-245 0 c0 -26 -4 -30 -31 -33 -27 -3 -32 0 -37 25 -7 37 -3 41 35
39 30 -1 33 -5 33 -31z m163 -82 c-2 -19 -10 -29 -30 -34 -23 -6 -27 -4 -30
22 -5 36 -2 39 34 39 26 0 29 -3 26 -27z m226 -49 c10 -4 16 -18 16 -35 0 -22
-5 -29 -20 -29 -12 0 -20 7 -21 18 0 13 -2 12 -9 -5 -14 -34 -20 -28 -20 17 0
41 13 50 54 34z m246 -89 c0 -8 -7 -15 -15 -15 -16 0 -20 12 -8 23 11 12 23 8
23 -8z m-1795 -5 c3 -5 -1 -10 -10 -10 -9 0 -13 5 -10 10 3 6 8 10 10 10 2 0
7 -4 10 -10z m1485 -25 c0 -33 -2 -35 -35 -35 -19 0 -35 3 -36 8 0 4 -2 19 -4
35 -3 25 -1 27 36 27 38 0 39 -1 39 -35z m240 23 c-1 -42 -12 -56 -46 -56 -32
0 -34 2 -34 34 0 33 1 34 40 34 25 0 40 -5 40 -12z m-128 -100 c-5 -21 -6 -21
-12 -2 -8 21 -3 37 10 29 4 -3 6 -15 2 -27z m125 -69 c-1 -18 -10 -24 -31 -20
-5 1 -16 -1 -25 -5 -12 -5 -6 -9 19 -14 l35 -7 -36 -2 c-36 -1 -37 0 -40 37
l-4 37 42 -3 c34 -3 41 -8 40 -23z m-527 -269 c0 -5 -4 -10 -10 -10 -5 0 -10
5 -10 10 0 6 5 10 10 10 6 0 10 -4 10 -10z m1410 -57 c0 -31 -2 -33 -34 -33
-29 0 -34 4 -33 20 1 22 17 28 17 7 0 -7 9 -13 20 -13 25 0 27 16 3 17 -15 0
-15 2 2 9 17 7 15 9 -12 9 -18 1 -33 5 -33 9 0 5 16 8 35 8 33 -1 35 -3 35
-33z m-2827 -150 c-7 -2 -19 -2 -25 0 -7 3 -2 5 12 5 14 0 19 -2 13 -5z m2507
-175 c-1 -18 -2 -52 -1 -75 1 -41 2 -42 39 -45 l37 -3 3 -77 3 -78 39 0 c40 0
40 0 40 -40 0 -40 0 -40 39 -40 39 0 40 -1 43 -37 3 -36 5 -38 41 -41 38 -3
38 -4 35 -40 -2 -21 -10 -40 -18 -44 -12 -5 -12 -7 3 -7 13 -1 17 -10 17 -36
0 -29 4 -36 25 -41 14 -3 32 -4 40 0 12 4 15 -6 15 -64 0 -39 -3 -71 -7 -71
-62 -10 -63 -9 -63 27 0 24 -5 34 -15 34 -8 0 -16 8 -16 18 -1 16 -2 16 -6 0
-2 -10 -13 -18 -24 -18 -16 0 -19 7 -19 45 l0 45 -40 0 c-45 0 -44 -2 -41 91
3 63 -11 83 -56 77 -26 -3 -28 -1 -26 30 2 31 0 32 -37 32 l-39 0 -3 83 -3 82
-43 3 c-40 3 -42 4 -40 34 1 17 8 33 15 35 27 11 1 20 -42 15 l-45 -5 0 72 0
71 76 0 76 0 -2 -32z m-1280 -153 c0 -18 -5 -25 -19 -25 -11 0 -23 -4 -26 -10
-15 -24 -35 -9 -35 25 0 34 1 35 40 35 36 0 40 -2 40 -25z m470 -10 c0 -19 -4
-35 -10 -35 -5 0 -10 4 -10 10 0 6 -9 6 -23 1 -25 -10 -73 -14 -144 -12 -42 1
-43 2 -43 36 l0 35 115 0 115 0 0 -35z m437 -12 c-3 -10 -5 -4 -5 12 0 17 2
24 5 18 2 -7 2 -21 0 -30z m-709 -58 c0 -14 -4 -25 -9 -25 -5 0 -9 14 -9 31 0
16 4 28 9 25 5 -3 9 -17 9 -31z m753 4 c9 -34 0 -47 -30 -44 -28 2 -45 28 -36
56 10 31 57 22 66 -12z m1609 -4 l0 -35 -80 0 -80 0 0 35 0 35 80 0 80 0 0
-35z m-2240 5 c0 -5 -4 -10 -10 -10 -5 0 -10 5 -10 10 0 6 5 10 10 10 6 0 10
-4 10 -10z m0 -30 c0 -5 -4 -10 -9 -10 -6 0 -13 5 -16 10 -3 6 1 10 9 10 9 0
16 -4 16 -10z m347 -42 c-3 -8 -6 -5 -6 6 -1 11 2 17 5 13 3 -3 4 -12 1 -19z
m43 -10 c0 -19 -2 -20 -10 -8 -13 19 -13 30 0 30 6 0 10 -10 10 -22z m243
-127 c9 -1 9 -43 1 -65 -3 -9 -17 -16 -30 -16 -22 0 -24 4 -24 45 0 41 2 45
23 41 12 -3 25 -5 30 -5z m-657 -101 c9 0 13 -4 10 -8 -8 -13 -49 -7 -54 8 -3
9 1 11 12 7 10 -4 24 -7 32 -7z m171 3 c14 -6 11 -9 -17 -14 l-35 -6 33 -2
c46 -2 40 -21 -8 -21 -36 0 -40 3 -40 25 0 20 5 25 24 25 13 0 33 -3 43 -7z
m758 -33 c3 -5 1 -10 -4 -10 -6 0 -11 5 -11 10 0 6 2 10 4 10 3 0 8 -4 11 -10z
m5 -41 c0 -6 -7 -9 -15 -5 -10 4 -15 -1 -15 -15 0 -11 4 -18 9 -14 5 3 12 1
15 -4 6 -9 -26 -21 -60 -21 -16 0 -23 7 -26 30 -5 31 -7 29 70 37 12 2 22 -2
22 -8z m532 -99 c-5 -31 -1 -28 -37 -32 -27 -3 -29 0 -31 30 -1 32 0 33 35 30
32 -3 36 -6 33 -28z m153 -105 c1 -77 -3 -85 -41 -85 -30 0 -33 3 -36 32 -3
30 -6 33 -38 33 -34 0 -35 1 -36 40 l-1 40 76 -5 76 -5 0 -50z m-266 -111 c27
-6 31 -10 31 -40 0 -33 -1 -34 -39 -34 -34 0 -39 3 -44 27 -5 29 0 53 13 53 4
0 22 -3 39 -6z m-689 -105 c0 -11 -27 -12 -34 0 -3 4 -3 11 0 14 8 8 34 -3 34
-14z m880 -8 c0 -27 -3 -29 -45 -33 -46 -3 -46 -3 -41 27 2 16 5 31 5 33 1 1
19 2 41 2 37 0 40 -2 40 -29z m-335 -51 c-3 -5 -12 -7 -20 -3 -10 3 -15 -1
-15 -13 0 -20 -13 -11 -16 11 -2 10 7 15 27 15 17 0 28 -4 24 -10z m484 -146
c1 -49 -1 -65 -11 -62 -7 3 -13 20 -13 39 0 25 -5 35 -19 39 -11 3 -21 15 -22
28 -3 19 1 22 30 22 l33 0 2 -66z m-434 26 c3 -5 -3 -10 -14 -10 -12 0 -21 5
-21 10 0 6 6 10 14 10 8 0 18 -4 21 -10z m395 -35 c0 -8 -4 -15 -10 -15 -5 0
-10 7 -10 15 0 8 5 15 10 15 6 0 10 -7 10 -15z m-286 -27 c-9 -14 -23 2 -17
18 4 12 8 13 14 3 4 -7 5 -17 3 -21z m281 -8 c3 -5 1 -10 -4 -10 -6 0 -11 5
-11 10 0 6 2 10 4 10 3 0 8 -4 11 -10z"/>
<path d="M4504 5068 c-3 -4 4 -8 15 -8 12 0 21 4 21 8 0 5 -7 9 -15 9 -9 0
-18 -4 -21 -9z"/>
<path d="M5081 4944 c0 -11 3 -14 6 -6 3 7 2 16 -1 19 -3 4 -6 -2 -5 -13z"/>
<path d="M5700 5250 c0 -5 5 -10 10 -10 6 0 10 5 10 10 0 6 -4 10 -10 10 -5 0
-10 -4 -10 -10z"/>
<path d="M852 5168 c-2 -10 -11 -18 -18 -18 -8 0 -14 -6 -14 -12 0 -9 23 -14
73 -15 l73 -3 -4 36 -4 35 -51 -3 c-38 -2 -51 -7 -55 -20z"/>
<path d="M1950 5140 c0 -5 5 -10 10 -10 6 0 10 5 10 10 0 6 -4 10 -10 10 -5 0
-10 -4 -10 -10z"/>
<path d="M872 5080 c0 -19 2 -27 5 -17 2 9 2 25 0 35 -3 9 -5 1 -5 -18z"/>
<path d="M3665 5060 c-3 -5 -1 -10 4 -10 6 0 11 5 11 10 0 6 -2 10 -4 10 -3 0
-8 -4 -11 -10z"/>
<path d="M3968 5043 c6 -2 18 -2 25 0 6 3 1 5 -13 5 -14 0 -19 -2 -12 -5z"/>
<path d="M3894 5009 c-3 -6 -1 -16 5 -22 8 -8 11 -5 11 11 0 24 -5 28 -16 11z"/>
<path d="M4097 4746 c-4 -10 -5 -21 -2 -24 9 -9 17 6 13 25 -3 17 -4 17 -11
-1z"/>
<path d="M3805 4740 c-3 -5 1 -10 10 -10 9 0 13 5 10 10 -3 6 -8 10 -10 10 -2
0 -7 -4 -10 -10z"/>
<path d="M4153 4688 c-7 -24 -8 -40 -1 -44 15 -10 20 1 16 42 l-3 39 -12 -37z"/>
<path d="M3994 4635 c-3 -19 -3 -51 0 -70 7 -33 9 -35 46 -35 29 0 40 4 40 15
0 11 -11 15 -40 15 l-40 0 0 40 0 40 40 0 c40 0 53 13 24 24 -9 3 -26 6 -39 6
-20 0 -25 -7 -31 -35z"/>
<path d="M4160 4620 c0 -5 5 -10 11 -10 5 0 7 5 4 10 -3 6 -8 10 -11 10 -2 0
-4 -4 -4 -10z"/>
<path d="M4162 4525 c0 -16 2 -22 5 -12 2 9 2 23 0 30 -3 6 -5 -1 -5 -18z"/>
<path d="M2498 4533 c12 -2 32 -2 45 0 12 2 2 4 -23 4 -25 0 -35 -2 -22 -4z"/>
<path d="M6028 4723 c-25 -4 -28 -8 -28 -44 l0 -40 42 3 c32 2 44 8 46 21 6
28 -7 67 -21 66 -6 -1 -24 -4 -39 -6z"/>
<path d="M5920 4450 c0 -5 18 -10 40 -10 22 0 40 5 40 10 0 6 -18 10 -40 10
-22 0 -40 -4 -40 -10z"/>
<path d="M3200 3480 c0 -40 0 -40 -40 -40 -39 0 -39 -1 -38 -36 1 -34 2 -35
37 -32 20 2 37 9 37 16 1 6 2 21 3 32 1 16 8 20 41 20 42 0 47 8 34 58 -5 17
-14 22 -40 22 -33 0 -34 -1 -34 -40z"/>
<path d="M368 2843 c7 -3 16 -2 19 1 4 3 -2 6 -13 5 -11 0 -14 -3 -6 -6z"/>
<path d="M258 2823 c12 -2 32 -2 45 0 12 2 2 4 -23 4 -25 0 -35 -2 -22 -4z"/>
<path d="M4050 2410 c0 -5 5 -10 10 -10 6 0 10 5 10 10 0 6 -4 10 -10 10 -5 0
-10 -4 -10 -10z"/>
<path d="M2852 1390 c0 -14 2 -19 5 -12 2 6 2 18 0 25 -3 6 -5 1 -5 -13z"/>
<path d="M2875 1350 c3 -5 8 -10 11 -10 2 0 4 5 4 10 0 6 -5 10 -11 10 -5 0
-7 -4 -4 -10z"/>
<path d="M3625 200 c4 -6 11 -8 16 -5 14 9 11 15 -7 15 -8 0 -12 -5 -9 -10z"/>
<path d="M6090 5886 l0 -34 60 -7 c46 -5 60 -11 60 -23 1 -15 2 -15 14 1 20
26 26 21 26 -23 0 -29 4 -40 15 -40 10 0 15 10 15 30 0 17 -4 30 -10 30 -5 0
-10 4 -10 9 0 5 32 12 72 16 52 5 67 10 55 17 -9 5 -25 8 -34 6 -10 -2 -18 4
-19 12 0 8 -2 21 -2 28 -2 9 -33 12 -122 12 l-120 0 0 -34z"/>
<path d="M197 5900 c-16 -5 -35 -6 -43 -3 -8 3 -14 0 -14 -6 0 -6 -8 -11 -17
-11 -10 0 -25 -5 -33 -10 -11 -7 -3 -11 30 -17 l45 -8 -40 -5 c-38 -5 -40 -7
-40 -40 0 -34 1 -35 43 -38 l42 -3 0 42 c0 23 3 39 7 35 4 -4 6 -22 5 -41 -4
-50 16 -43 21 8 l4 42 1 -42 c1 -24 7 -43 13 -43 8 0 10 14 6 40 -3 27 -1 40
7 40 8 0 11 12 8 35 -2 19 -7 35 -11 34 -3 0 -19 -5 -34 -9z"/>
<path d="M3971 5894 c0 -11 3 -14 6 -6 3 7 2 16 -1 19 -3 4 -6 -2 -5 -13z"/>
<path d="M2670 5890 c0 -5 7 -10 15 -10 8 0 15 5 15 10 0 6 -7 10 -15 10 -8 0
-15 -4 -15 -10z"/>
<path d="M3940 5885 c0 -8 2 -15 4 -15 2 0 6 7 10 15 3 8 1 15 -4 15 -6 0 -10
-7 -10 -15z"/>
<path d="M6350 5890 c0 -5 5 -10 10 -10 6 0 10 5 10 10 0 6 -4 10 -10 10 -5 0
-10 -4 -10 -10z"/>
<path d="M428 5878 c9 -9 15 -9 24 0 9 9 7 12 -12 12 -19 0 -21 -3 -12 -12z"/>
<path d="M481 5867 c-1 -13 -7 -16 -25 -11 -15 3 -25 1 -29 -9 -4 -11 3 -13
30 -11 42 3 43 4 32 29 -6 17 -8 18 -8 2z"/>
<path d="M2530 5870 c0 -5 7 -10 15 -10 8 0 15 5 15 10 0 6 -7 10 -15 10 -8 0
-15 -4 -15 -10z"/>
<path d="M2670 5860 c0 -5 12 -10 26 -10 14 0 23 4 19 10 -3 6 -15 10 -26 10
-10 0 -19 -4 -19 -10z"/>
<path d="M4190 5850 c0 -5 5 -10 10 -10 6 0 10 5 10 10 0 6 -4 10 -10 10 -5 0
-10 -4 -10 -10z"/>
<path d="M1200 5795 l0 -46 120 3 c66 2 120 0 120 -4 0 -5 -55 -8 -122 -8 -67
0 -118 -3 -114 -7 8 -8 18 -9 154 -13 53 -1 77 -5 62 -9 -27 -8 -21 -15 24
-25 19 -5 32 -3 38 6 8 10 11 10 15 1 2 -7 11 -13 19 -13 12 0 14 14 12 69
l-2 69 -54 4 c-29 2 -57 -1 -61 -5 -4 -4 -21 -3 -37 4 -16 6 -62 13 -101 16
l-73 4 0 -46z"/>
<path d="M1685 5832 c-3 -3 -5 -22 -5 -41 l0 -37 41 4 c39 4 40 5 37 40 -3 33
-6 37 -35 38 -18 1 -35 -1 -38 -4z"/>
<path d="M2484 5826 c-3 -8 -4 -25 -2 -38 2 -19 10 -23 46 -26 l42 -3 0 40 0
41 -40 0 c-26 0 -43 -5 -46 -14z"/>
<path d="M4930 5802 c0 -23 5 -42 10 -42 7 0 8 14 4 38 -9 51 -14 53 -14 4z"/>
<path d="M6553 5795 c0 -27 2 -38 4 -22 2 15 2 37 0 50 -2 12 -4 0 -4 -28z"/>
<path d="M4280 5803 c0 -6 -3 -18 -6 -27 -4 -11 0 -14 15 -13 12 1 21 4 21 7
0 12 -29 45 -30 33z"/>
<path d="M1600 5780 c0 -11 6 -20 13 -20 19 0 27 10 20 26 -8 21 -33 17 -33
-6z"/>
<path d="M2401 5784 c0 -11 3 -14 6 -6 3 7 2 16 -1 19 -3 4 -6 -2 -5 -13z"/>
<path d="M3120 5770 c0 -5 17 -10 38 -9 30 0 33 2 17 9 -28 12 -55 12 -55 0z"/>
<path d="M5831 5764 c0 -11 3 -14 6 -6 3 7 2 16 -1 19 -3 4 -6 -2 -5 -13z"/>
<path d="M3200 5750 c0 -7 15 -9 40 -6 41 4 41 5 44 -44 1 -18 36 -26 46 -10
4 6 7 23 6 38 -1 26 -3 27 -68 30 -44 2 -68 -1 -68 -8z"/>
<path d="M2320 5719 c0 -12 5 -19 12 -17 18 6 20 25 3 31 -10 5 -15 0 -15 -14z"/>
<path d="M2780 5730 c-13 -8 -12 -10 3 -10 9 0 17 5 17 10 0 12 -1 12 -20 0z"/>
<path d="M3745 5720 c-3 -5 -1 -10 4 -10 6 0 11 5 11 10 0 6 -2 10 -4 10 -3 0
-8 -4 -11 -10z"/>
<path d="M2837 5693 c3 -7 6 -13 8 -13 2 0 5 6 8 13 3 8 -1 14 -8 14 -7 0 -11
-6 -8 -14z"/>
<path d="M3527 5686 c-10 -26 -8 -56 3 -56 6 0 10 4 10 9 0 6 33 13 73 17 l72
8 -54 7 c-29 4 -58 13 -62 21 -8 11 -10 11 -18 -1 -7 -11 -9 -11 -13 0 -3 9
-6 8 -11 -5z"/>
<path d="M3746 5681 c-4 -7 -5 -15 -2 -18 9 -9 19 4 14 18 -4 11 -6 11 -12 0z"/>
<path d="M3377 5673 c-2 -4 -4 -19 -2 -32 1 -21 7 -25 36 -25 28 -1 35 4 43
26 12 34 6 41 -26 29 -17 -6 -29 -6 -36 1 -5 5 -12 6 -15 1z"/>
<path d="M3832 5640 c0 -19 2 -27 5 -17 2 9 2 25 0 35 -3 9 -5 1 -5 -18z"/>
<path d="M3490 5635 c0 -14 5 -25 10 -25 6 0 10 11 10 25 0 14 -4 25 -10 25
-5 0 -10 -11 -10 -25z"/>
<path d="M3925 5640 c-3 -5 -1 -10 4 -10 6 0 11 5 11 10 0 6 -2 10 -4 10 -3 0
-8 -4 -11 -10z"/>
<path d="M3608 5633 c6 -2 18 -2 25 0 6 3 1 5 -13 5 -14 0 -19 -2 -12 -5z"/>
<path d="M5898 5633 c7 -3 16 -2 19 1 4 3 -2 6 -13 5 -11 0 -14 -3 -6 -6z"/>
<path d="M6480 5400 c0 -5 18 -10 40 -10 22 0 40 5 40 10 0 6 -18 10 -40 10
-22 0 -40 -4 -40 -10z"/>
<path d="M6208 5263 c7 -3 16 -2 19 1 4 3 -2 6 -13 5 -11 0 -14 -3 -6 -6z"/>
<path d="M6480 5110 c0 -5 12 -10 28 -9 24 0 25 1 7 9 -27 12 -35 12 -35 0z"/>
<path d="M2133 4915 c0 -22 2 -30 4 -17 2 12 2 30 0 40 -3 9 -5 -1 -4 -23z"/>
<path d="M2043 4840 c0 -25 2 -35 4 -22 2 12 2 32 0 45 -2 12 -4 2 -4 -23z"/>
<path d="M2073 4840 c0 -25 2 -35 4 -22 2 12 2 32 0 45 -2 12 -4 2 -4 -23z"/>
<path d="M2248 4873 c7 -3 16 -2 19 1 4 3 -2 6 -13 5 -11 0 -14 -3 -6 -6z"/>
<path d="M1680 4770 c0 -5 18 -10 40 -10 22 0 40 5 40 10 0 6 -18 10 -40 10
-22 0 -40 -4 -40 -10z"/>
<path d="M0 4760 c0 -5 18 -10 40 -10 22 0 40 5 40 10 0 6 -18 10 -40 10 -22
0 -40 -4 -40 -10z"/>
<path d="M1578 4763 c7 -3 16 -2 19 1 4 3 -2 6 -13 5 -11 0 -14 -3 -6 -6z"/>
<path d="M1698 4733 c12 -2 32 -2 45 0 12 2 2 4 -23 4 -25 0 -35 -2 -22 -4z"/>
<path d="M401 4674 c0 -11 3 -14 6 -6 3 7 2 16 -1 19 -3 4 -6 -2 -5 -13z"/>
<path d="M1760 4658 c0 -8 16 -14 40 -15 30 -2 40 1 40 12 0 11 -11 15 -40 15
-25 0 -40 -5 -40 -12z"/>
<path d="M928 4603 c7 -3 16 -2 19 1 4 3 -2 6 -13 5 -11 0 -14 -3 -6 -6z"/>
<path d="M880 4559 c0 -20 4 -29 13 -27 17 6 17 46 1 52 -10 4 -14 -4 -14 -25z"/>
<path d="M178 4563 c12 -2 32 -2 45 0 12 2 2 4 -23 4 -25 0 -35 -2 -22 -4z"/>
<path d="M6407 4553 c-4 -3 -7 -20 -7 -36 0 -20 6 -30 19 -34 11 -3 21 -13 24
-24 7 -25 23 -24 30 1 4 15 14 20 36 20 29 0 31 -2 31 -40 0 -22 5 -40 10 -40
6 0 10 33 10 80 l0 80 -73 0 c-41 0 -77 -3 -80 -7z"/>
<path d="M0 4540 c0 -5 13 -10 30 -10 17 0 30 5 30 10 0 6 -13 10 -30 10 -17
0 -30 -4 -30 -10z"/>
<path d="M935 4530 c-4 -6 -3 -16 3 -22 6 -6 12 -6 17 2 4 6 3 16 -3 22 -6 6
-12 6 -17 -2z"/>
<path d="M0 4470 l0 -50 40 0 c22 0 40 3 40 8 0 4 10 12 22 17 38 17 31 32
-19 41 -32 5 -40 9 -25 12 33 5 16 22 -24 22 l-34 0 0 -50z"/>
<path d="M240 4468 c0 -4 18 -8 40 -8 29 0 40 -4 40 -15 0 -11 11 -15 40 -15
56 0 54 26 -2 36 -64 11 -118 12 -118 2z"/>
<path d="M910 4463 c0 -10 5 -25 10 -33 7 -11 10 -7 10 18 0 17 -4 32 -10 32
-5 0 -10 -8 -10 -17z"/>
<path d="M1760 4450 c0 -5 18 -10 40 -10 22 0 40 5 40 10 0 6 -18 10 -40 10
-22 0 -40 -4 -40 -10z"/>
<path d="M1778 4423 c12 -2 32 -2 45 0 12 2 2 4 -23 4 -25 0 -35 -2 -22 -4z"/>
<path d="M2098 4423 c12 -2 32 -2 45 0 12 2 2 4 -23 4 -25 0 -35 -2 -22 -4z"/>
<path d="M2660 4420 c0 -5 7 -10 16 -10 8 0 12 5 9 10 -3 6 -10 10 -16 10 -5
0 -9 -4 -9 -10z"/>
<path d="M320 4410 c0 -5 18 -10 40 -10 22 0 40 5 40 10 0 6 -18 10 -40 10
-22 0 -40 -4 -40 -10z"/>
<path d="M4503 4360 c0 -25 2 -35 4 -22 2 12 2 32 0 45 -2 12 -4 2 -4 -23z"/>
<path d="M4523 4360 c0 -25 2 -35 4 -22 2 12 2 32 0 45 -2 12 -4 2 -4 -23z"/>
<path d="M927 4373 c-2 -5 -1 -19 4 -33 7 -23 7 -23 8 8 1 31 -3 40 -12 25z"/>
<path d="M2880 4300 c0 -5 9 -10 21 -10 11 0 17 5 14 10 -3 6 -13 10 -21 10
-8 0 -14 -4 -14 -10z"/>
<path d="M2880 4270 c0 -5 18 -10 40 -10 22 0 40 5 40 10 0 6 -18 10 -40 10
-22 0 -40 -4 -40 -10z"/>
<path d="M3020 4255 c-10 -12 -10 -15 4 -15 9 0 16 7 16 15 0 8 -2 15 -4 15
-2 0 -9 -7 -16 -15z"/>
<path d="M4490 4220 c0 -5 9 -14 20 -20 11 -6 20 -7 20 -3 0 5 -9 14 -20 21
-11 7 -20 8 -20 2z"/>
<path d="M1077 4213 c-2 -5 -1 -19 4 -33 4 -15 7 -18 8 -8 1 9 4 23 7 32 6 16
-11 23 -19 9z"/>
<path d="M2980 4150 c0 -5 5 -10 10 -10 6 0 10 5 10 10 0 6 -4 10 -10 10 -5 0
-10 -4 -10 -10z"/>
<path d="M3010 4149 c0 -5 5 -7 10 -4 6 3 10 8 10 11 0 2 -4 4 -10 4 -5 0 -10
-5 -10 -11z"/>
<path d="M3258 4153 c7 -3 16 -2 19 1 4 3 -2 6 -13 5 -11 0 -14 -3 -6 -6z"/>
<path d="M4032 4100 c0 -14 2 -19 5 -12 2 6 2 18 0 25 -3 6 -5 1 -5 -13z"/>
<path d="M4050 4101 c0 -6 5 -13 10 -16 6 -3 10 1 10 9 0 9 -4 16 -10 16 -5 0
-10 -4 -10 -9z"/>
<path d="M2980 4090 c0 -5 5 -10 10 -10 6 0 10 5 10 10 0 6 -4 10 -10 10 -5 0
-10 -4 -10 -10z"/>
<path d="M3010 4090 c0 -5 5 -10 11 -10 5 0 7 5 4 10 -3 6 -8 10 -11 10 -2 0
-4 -4 -4 -10z"/>
<path d="M3402 4055 c0 -16 2 -22 5 -12 2 9 2 23 0 30 -3 6 -5 -1 -5 -18z"/>
<path d="M1 4053 c-1 -17 5 -23 20 -23 11 0 18 -4 15 -9 -6 -9 40 -21 80 -21
17 0 24 -6 25 -20 1 -11 2 -26 3 -32 1 -8 20 -14 49 -16 l47 -3 0 -44 c0 -47
19 -63 60 -50 16 5 20 15 20 51 l0 44 -40 0 c-39 0 -40 1 -40 36 l0 37 80 -6
c49 -3 82 -1 86 5 6 9 24 8 119 -8 35 -6 38 -5 27 9 -11 12 -11 17 0 23 9 6 6
10 -12 15 l-25 7 25 2 c74 7 -90 19 -267 19 -174 1 -203 -1 -203 -14 0 -8 -4
-15 -10 -15 -5 0 -10 7 -10 15 0 8 -4 15 -10 15 -5 0 -10 -7 -10 -15 0 -21
-18 -19 -23 3 -4 13 -5 11 -6 -5z"/>
<path d="M2930 4045 c0 -8 5 -15 10 -15 6 0 10 7 10 15 0 8 -4 15 -10 15 -5 0
-10 -7 -10 -15z"/>
<path d="M5520 3961 c0 -40 0 -40 -42 -43 -42 -3 -43 -4 -46 -40 l-3 -38 45 0
c46 0 46 0 46 35 0 34 1 35 39 35 47 0 50 3 44 53 -5 36 -7 37 -44 37 -39 0
-39 0 -39 -39z"/>
<path d="M5395 3980 c-3 -5 -1 -10 4 -10 6 0 11 5 11 10 0 6 -2 10 -4 10 -3 0
-8 -4 -11 -10z"/>
<path d="M3371 3964 c0 -11 3 -14 6 -6 3 7 2 16 -1 19 -3 4 -6 -2 -5 -13z"/>
<path d="M880 3945 c0 -22 4 -25 33 -24 23 1 26 3 10 6 -28 5 -30 23 -3 23 11
0 20 5 20 10 0 6 -13 10 -30 10 -25 0 -30 -4 -30 -25z"/>
<path d="M560 3896 c0 -32 18 -45 76 -52 27 -4 57 -14 67 -22 16 -14 17 -12
17 41 l0 57 -80 0 c-78 0 -80 -1 -80 -24z"/>
<path d="M4385 3908 c-3 -7 -3 -20 -2 -28 6 -35 18 -40 98 -40 l79 0 0 40 0
40 -85 0 c-60 0 -87 -4 -90 -12z"/>
<path d="M1323 3903 c-67 -6 -50 -20 33 -28 76 -7 104 1 90 24 -7 11 -36 12
-123 4z m100 -20 c-13 -2 -33 -2 -45 0 -13 2 -3 4 22 4 25 0 35 -2 23 -4z"/>
<path d="M2702 3895 c3 -17 11 -20 53 -21 40 -1 42 0 11 3 -22 2 -46 12 -53
21 -13 16 -14 15 -11 -3z"/>
<path d="M1480 3890 c0 -5 5 -10 10 -10 6 0 10 5 10 10 0 6 -4 10 -10 10 -5 0
-10 -4 -10 -10z"/>
<path d="M3295 3890 c-3 -5 -1 -10 4 -10 6 0 11 5 11 10 0 6 -2 10 -4 10 -3 0
-8 -4 -11 -10z"/>
<path d="M1378 3843 c12 -2 32 -2 45 0 12 2 2 4 -23 4 -25 0 -35 -2 -22 -4z"/>
<path d="M860 3822 c0 -38 12 -51 48 -57 21 -3 49 -8 65 -10 25 -4 27 -2 28
28 l1 32 8 -30 8 -30 1 28 c1 38 -1 42 -29 43 -14 1 -49 4 -77 9 -49 6 -53 5
-53 -13z"/>
<path d="M92 3798 c3 -7 13 -15 22 -16 12 -3 17 1 14 10 -3 7 -13 15 -22 16
-12 3 -17 -1 -14 -10z"/>
<path d="M747 3804 c-16 -16 -7 -44 14 -44 15 0 20 5 17 22 -3 22 -19 33 -31
22z"/>
<path d="M2918 3793 c23 -2 59 -2 80 0 20 2 1 4 -43 4 -44 0 -61 -2 -37 -4z"/>
<path d="M523 3783 c9 -2 23 -2 30 0 6 3 -1 5 -18 5 -16 0 -22 -2 -12 -5z"/>
<path d="M371 3744 c0 -11 3 -14 6 -6 3 7 2 16 -1 19 -3 4 -6 -2 -5 -13z"/>
<path d="M3055 3750 c3 -5 8 -10 11 -10 2 0 4 5 4 10 0 6 -5 10 -11 10 -5 0
-7 -4 -4 -10z"/>
<path d="M1538 3743 c12 -2 32 -2 45 0 12 2 2 4 -23 4 -25 0 -35 -2 -22 -4z"/>
<path d="M1418 3703 c7 -3 16 -2 19 1 4 3 -2 6 -13 5 -11 0 -14 -3 -6 -6z"/>
<path d="M420 3560 c0 -5 7 -10 15 -10 23 0 18 -18 -7 -23 -15 -3 -10 -5 13
-6 33 -1 37 2 37 24 0 21 -5 25 -29 25 -16 0 -29 -4 -29 -10z"/>
<path d="M2751 3534 c0 -11 3 -14 6 -6 3 7 2 16 -1 19 -3 4 -6 -2 -5 -13z"/>
<path d="M1848 3523 c6 -2 18 -2 25 0 6 3 1 5 -13 5 -14 0 -19 -2 -12 -5z"/>
<path d="M1903 3523 c9 -2 25 -2 35 0 9 3 1 5 -18 5 -19 0 -27 -2 -17 -5z"/>
<path d="M2217 3480 c-3 -12 0 -20 8 -20 8 0 11 8 8 20 -3 11 -7 20 -8 20 -1
0 -5 -9 -8 -20z"/>
<path d="M162 3400 l-1 -30 75 0 74 0 0 30 0 30 -73 0 -74 0 -1 -30z"/>
<path d="M2000 3390 c0 -5 4 -10 9 -10 6 0 13 5 16 10 3 6 -1 10 -9 10 -9 0
-16 -4 -16 -10z"/>
<path d="M1998 3363 c7 -3 16 -2 19 1 4 3 -2 6 -13 5 -11 0 -14 -3 -6 -6z"/>
<path d="M400 3325 c0 -33 2 -35 35 -35 33 0 35 2 35 35 0 33 -2 35 -35 35
-33 0 -35 -2 -35 -35z"/>
<path d="M673 3345 c0 -8 7 -17 16 -21 14 -5 13 -7 -4 -14 -17 -7 -14 -9 13
-9 29 -1 32 2 32 29 0 26 -4 30 -28 30 -18 0 -29 -5 -29 -15z"/>
<path d="M2330 2356 c0 -2 9 -6 20 -9 11 -3 20 -1 20 4 0 5 -9 9 -20 9 -11 0
-20 -2 -20 -4z"/>
<path d="M3013 2020 c1 -11 5 -20 9 -20 11 0 10 28 -1 35 -6 3 -9 -4 -8 -15z"/>
<path d="M3458 1813 c6 -2 12 -14 13 -26 0 -12 3 -16 6 -9 2 6 9 12 14 12 6 0
7 -4 4 -10 -3 -5 -1 -10 4 -10 19 0 12 30 -6 31 -15 0 -15 2 2 9 16 7 13 9
-15 9 -19 -1 -29 -3 -22 -6z"/>
<path d="M3760 1246 l0 -46 -39 0 c-38 0 -39 -1 -43 -40 l-4 -40 49 0 49 0 -4
38 c-3 37 -3 37 37 40 40 3 40 3 40 45 l0 42 -43 3 -42 3 0 -45z"/>
<path d="M4240 1000 l0 -40 85 0 85 0 0 40 0 40 -85 0 -85 0 0 -40z"/>
<path d="M3920 941 c0 -16 -3 -36 -6 -45 -5 -13 2 -16 40 -16 l46 0 0 45 0 45
-40 0 c-38 0 -40 -2 -40 -29z"/>
<path d="M3830 950 c0 -5 5 -10 10 -10 6 0 10 5 10 10 0 6 -4 10 -10 10 -5 0
-10 -4 -10 -10z"/>
<path d="M4082 803 l3 -78 118 -3 c103 -2 118 -5 113 -18 -3 -9 -3 -26 0 -40
6 -23 10 -24 90 -24 l84 0 0 40 0 40 -80 0 -80 0 0 40 0 40 -75 0 -75 0 0 40
0 40 -50 0 -51 0 3 -77z"/>
<path d="M4952 803 c-80 -3 -93 -6 -88 -19 3 -9 6 -19 6 -24 0 -11 54 -7 62 5
4 5 8 -2 8 -17 0 -28 1 -28 64 -28 l65 0 4 -42 4 -43 1 43 c2 53 22 56 22 3 0
-43 10 -51 66 -51 l34 0 0 51 0 51 -40 -7 -40 -7 0 46 0 46 -37 -2 c-21 -1
-80 -4 -131 -5z"/>
<path d="M3842 763 c3 -36 5 -38 38 -38 33 0 35 2 38 38 l3 37 -41 0 -41 0 3
-37z"/>
<path d="M3933 713 c-9 -3 -13 -29 -13 -79 l0 -75 78 3 77 3 3 43 3 42 -41 0
c-48 0 -46 19 3 21 30 2 30 2 -8 9 l-40 7 43 2 c23 0 42 6 42 11 0 6 -3 10 -7
11 -29 4 -130 5 -140 2z"/>
<path d="M4080 520 l0 -40 40 0 40 0 0 -40 0 -40 120 0 120 0 0 40 0 40 -83 0
-83 0 0 38 1 37 -77 3 -78 3 0 -41z"/>
<path d="M4470 520 l0 -40 50 0 c46 0 50 2 50 24 0 13 3 31 6 40 5 13 -3 16
-50 16 l-56 0 0 -40z"/>
<path d="M3751 481 c-10 -7 -11 -18 -4 -47 9 -38 10 -39 51 -36 42 4 42 4 42
-31 0 -31 3 -35 28 -39 43 -6 52 0 52 38 0 33 -1 34 -40 34 l-40 0 0 45 0 45
-37 0 c-21 0 -44 -4 -52 -9z"/>
<path d="M4627 483 c-2 -5 0 -21 4 -38 7 -29 7 -29 8 8 1 35 -3 46 -12 30z"/>
<path d="M4580 469 c0 -5 5 -7 10 -4 6 3 10 8 10 11 0 2 -4 4 -10 4 -5 0 -10
-5 -10 -11z"/>
<path d="M4780 440 l0 -40 128 0 c71 0 184 -3 250 -7 l122 -6 0 46 0 47 -250
0 -250 0 0 -40z"/>
<path d="M5512 358 l3 -43 509 3 c368 2 512 -1 522 -9 12 -9 14 -2 14 40 l0
51 -526 0 -525 0 3 -42z"/>
<path d="M3943 323 c-19 -4 -23 -11 -23 -44 0 -39 0 -39 40 -39 39 0 40 1 40
35 0 19 1 38 3 43 2 8 -29 11 -60 5z"/>
<path d="M4392 278 l3 -43 140 3 c98 2 158 -1 199 -12 33 -8 66 -12 74 -9 16
7 32 -13 32 -39 0 -15 -10 -18 -66 -18 l-66 0 6 -31 c3 -17 6 -35 6 -40 0 -5
56 -9 125 -9 l125 0 0 40 0 40 -45 0 -45 0 0 40 0 40 130 0 130 0 0 24 c0 13
3 31 6 40 6 14 -32 16 -376 16 l-381 0 3 -42z"/>
<path d="M6553 200 c0 -30 2 -43 4 -27 2 15 2 39 0 55 -2 15 -4 2 -4 -28z"/>
<path d="M5680 200 l0 -40 210 0 210 0 0 40 0 40 -210 0 -210 0 0 -40z"/>
<path d="M6150 200 l0 -40 85 0 85 0 0 40 0 40 -85 0 -85 0 0 -40z"/>
<path d="M3940 217 c0 -9 -3 -22 -6 -31 -5 -12 1 -15 30 -14 34 1 36 3 35 32
-1 24 -3 26 -6 9 -2 -13 -11 -23 -19 -23 -8 0 -14 7 -12 16 2 10 -3 19 -9 21
-7 3 -13 -2 -13 -10z"/>
<path d="M4035 160 c-18 -8 -17 -9 7 -9 24 -1 27 -5 30 -38 3 -35 6 -38 36
-41 27 -3 32 -7 32 -28 0 -24 -2 -25 -57 -22 -32 2 -60 -1 -63 -7 -3 -6 39
-11 113 -13 l118 -3 -3 43 c-3 43 -3 43 -45 46 -43 3 -43 3 -43 43 l0 39 -52
-1 c-29 0 -62 -4 -73 -9z"/>
<path d="M4558 162 l-88 -3 0 -39 0 -40 89 0 c72 0 90 3 95 16 8 22 8 62 -1
66 -5 2 -47 2 -95 0z"/>
</g>
</svg>
